<mxfile host="app.diagrams.net" modified="2022-05-28T01:03:57.040Z" agent="5.0 (Windows NT 10.0; Win64; x64) AppleWebKit/537.36 (KHTML, like Gecko) Chrome/101.0.4951.67 Safari/537.36" etag="URvBzB05Q_lrtWTqqQNo" version="18.1.3" type="github" pages="3">
  <diagram name="ERD" id="FTx7MsSdTdnOBaRnhUX2">
    <mxGraphModel dx="3624" dy="1203" grid="1" gridSize="10" guides="1" tooltips="1" connect="1" arrows="1" fold="1" page="1" pageScale="1" pageWidth="850" pageHeight="1100" math="0" shadow="0" extFonts="Permanent Marker^https://fonts.googleapis.com/css?family=Permanent+Marker">
      <root>
        <mxCell id="0" />
        <mxCell id="1" parent="0" />
        <mxCell id="hnjgq9xZv8DV5u2jE8Lt-1" value="Products&lt;br&gt;" style="whiteSpace=wrap;html=1;align=center;" parent="1" vertex="1">
          <mxGeometry x="210" y="600" width="100" height="40" as="geometry" />
        </mxCell>
        <mxCell id="hnjgq9xZv8DV5u2jE8Lt-2" value="id" style="ellipse;whiteSpace=wrap;html=1;align=center;fontStyle=4;" parent="1" vertex="1">
          <mxGeometry x="90" y="480" width="100" height="40" as="geometry" />
        </mxCell>
        <mxCell id="hnjgq9xZv8DV5u2jE8Lt-3" value="" style="endArrow=none;html=1;rounded=0;entryX=0;entryY=0;entryDx=0;entryDy=0;exitX=1;exitY=1;exitDx=0;exitDy=0;" parent="1" source="hnjgq9xZv8DV5u2jE8Lt-2" target="hnjgq9xZv8DV5u2jE8Lt-1" edge="1">
          <mxGeometry relative="1" as="geometry">
            <mxPoint x="100" y="500" as="sourcePoint" />
            <mxPoint x="260" y="500" as="targetPoint" />
          </mxGeometry>
        </mxCell>
        <mxCell id="hnjgq9xZv8DV5u2jE8Lt-5" value="id_category" style="ellipse;whiteSpace=wrap;html=1;align=center;" parent="1" vertex="1">
          <mxGeometry x="50" y="540" width="100" height="40" as="geometry" />
        </mxCell>
        <mxCell id="hnjgq9xZv8DV5u2jE8Lt-7" value="" style="endArrow=none;html=1;rounded=0;entryX=1;entryY=0.5;entryDx=0;entryDy=0;exitX=0;exitY=0.5;exitDx=0;exitDy=0;" parent="1" source="hnjgq9xZv8DV5u2jE8Lt-1" target="hnjgq9xZv8DV5u2jE8Lt-5" edge="1">
          <mxGeometry relative="1" as="geometry">
            <mxPoint x="149.99533905932742" y="630.0021356237311" as="sourcePoint" />
            <mxPoint x="254.64" y="745.86" as="targetPoint" />
          </mxGeometry>
        </mxCell>
        <mxCell id="hnjgq9xZv8DV5u2jE8Lt-12" value="product_name" style="ellipse;whiteSpace=wrap;html=1;align=center;" parent="1" vertex="1">
          <mxGeometry x="40" y="600" width="100" height="40" as="geometry" />
        </mxCell>
        <mxCell id="hnjgq9xZv8DV5u2jE8Lt-14" value="" style="endArrow=none;html=1;rounded=0;exitX=0;exitY=1;exitDx=0;exitDy=0;entryX=1;entryY=1;entryDx=0;entryDy=0;" parent="1" source="hnjgq9xZv8DV5u2jE8Lt-1" target="hnjgq9xZv8DV5u2jE8Lt-12" edge="1">
          <mxGeometry relative="1" as="geometry">
            <mxPoint x="220" y="630" as="sourcePoint" />
            <mxPoint x="110" y="630" as="targetPoint" />
          </mxGeometry>
        </mxCell>
        <mxCell id="hnjgq9xZv8DV5u2jE8Lt-15" value="product_price" style="ellipse;whiteSpace=wrap;html=1;align=center;fontStyle=4;" parent="1" vertex="1">
          <mxGeometry x="200" y="470" width="100" height="40" as="geometry" />
        </mxCell>
        <mxCell id="hnjgq9xZv8DV5u2jE8Lt-16" value="" style="endArrow=none;html=1;rounded=0;entryX=0.5;entryY=0;entryDx=0;entryDy=0;exitX=0.576;exitY=1.065;exitDx=0;exitDy=0;exitPerimeter=0;" parent="1" source="hnjgq9xZv8DV5u2jE8Lt-15" target="hnjgq9xZv8DV5u2jE8Lt-1" edge="1">
          <mxGeometry relative="1" as="geometry">
            <mxPoint x="430" y="560" as="sourcePoint" />
            <mxPoint x="540" y="660" as="targetPoint" />
          </mxGeometry>
        </mxCell>
        <mxCell id="hnjgq9xZv8DV5u2jE8Lt-18" value="" style="endArrow=none;html=1;rounded=0;exitX=0.5;exitY=0;exitDx=0;exitDy=0;entryX=1;entryY=1;entryDx=0;entryDy=0;" parent="1" source="hnjgq9xZv8DV5u2jE8Lt-87" target="hnjgq9xZv8DV5u2jE8Lt-1" edge="1">
          <mxGeometry relative="1" as="geometry">
            <mxPoint x="255" y="700" as="sourcePoint" />
            <mxPoint x="255" y="640" as="targetPoint" />
          </mxGeometry>
        </mxCell>
        <mxCell id="hnjgq9xZv8DV5u2jE8Lt-20" value="" style="endArrow=none;html=1;rounded=0;entryX=0.25;entryY=1;entryDx=0;entryDy=0;exitX=0.943;exitY=0.243;exitDx=0;exitDy=0;exitPerimeter=0;" parent="1" source="hnjgq9xZv8DV5u2jE8Lt-89" target="hnjgq9xZv8DV5u2jE8Lt-1" edge="1">
          <mxGeometry relative="1" as="geometry">
            <mxPoint x="160" y="680" as="sourcePoint" />
            <mxPoint x="285" y="870" as="targetPoint" />
          </mxGeometry>
        </mxCell>
        <mxCell id="hnjgq9xZv8DV5u2jE8Lt-21" value="categories" style="whiteSpace=wrap;html=1;align=center;" parent="1" vertex="1">
          <mxGeometry x="610" y="600" width="100" height="40" as="geometry" />
        </mxCell>
        <mxCell id="hnjgq9xZv8DV5u2jE8Lt-22" value="id" style="ellipse;whiteSpace=wrap;html=1;align=center;fontStyle=4;" parent="1" vertex="1">
          <mxGeometry x="730" y="510" width="100" height="40" as="geometry" />
        </mxCell>
        <mxCell id="hnjgq9xZv8DV5u2jE8Lt-23" value="" style="endArrow=none;html=1;rounded=0;entryX=1;entryY=0;entryDx=0;entryDy=0;exitX=0.348;exitY=1.005;exitDx=0;exitDy=0;exitPerimeter=0;" parent="1" source="hnjgq9xZv8DV5u2jE8Lt-22" target="hnjgq9xZv8DV5u2jE8Lt-21" edge="1">
          <mxGeometry relative="1" as="geometry">
            <mxPoint x="490" y="510" as="sourcePoint" />
            <mxPoint x="650" y="510" as="targetPoint" />
          </mxGeometry>
        </mxCell>
        <mxCell id="hnjgq9xZv8DV5u2jE8Lt-25" value="category_name" style="ellipse;whiteSpace=wrap;html=1;align=center;" parent="1" vertex="1">
          <mxGeometry x="740" y="670" width="100" height="40" as="geometry" />
        </mxCell>
        <mxCell id="hnjgq9xZv8DV5u2jE8Lt-26" value="" style="endArrow=none;html=1;rounded=0;exitX=1;exitY=1;exitDx=0;exitDy=0;" parent="1" source="hnjgq9xZv8DV5u2jE8Lt-21" target="hnjgq9xZv8DV5u2jE8Lt-25" edge="1">
          <mxGeometry relative="1" as="geometry">
            <mxPoint x="610" y="640" as="sourcePoint" />
            <mxPoint x="500" y="640" as="targetPoint" />
          </mxGeometry>
        </mxCell>
        <mxCell id="hnjgq9xZv8DV5u2jE8Lt-34" value="Memiliki" style="shape=rhombus;perimeter=rhombusPerimeter;whiteSpace=wrap;html=1;align=center;" parent="1" vertex="1">
          <mxGeometry x="390" y="590" width="120" height="60" as="geometry" />
        </mxCell>
        <mxCell id="hnjgq9xZv8DV5u2jE8Lt-44" value="" style="endArrow=none;html=1;rounded=0;exitX=1;exitY=0.5;exitDx=0;exitDy=0;" parent="1" source="hnjgq9xZv8DV5u2jE8Lt-1" target="hnjgq9xZv8DV5u2jE8Lt-34" edge="1">
          <mxGeometry relative="1" as="geometry">
            <mxPoint x="350" y="730" as="sourcePoint" />
            <mxPoint x="460" y="750" as="targetPoint" />
          </mxGeometry>
        </mxCell>
        <mxCell id="hnjgq9xZv8DV5u2jE8Lt-45" value="N" style="resizable=0;html=1;align=right;verticalAlign=bottom;" parent="hnjgq9xZv8DV5u2jE8Lt-44" connectable="0" vertex="1">
          <mxGeometry x="1" relative="1" as="geometry" />
        </mxCell>
        <mxCell id="hnjgq9xZv8DV5u2jE8Lt-46" value="" style="endArrow=none;html=1;rounded=0;exitX=0;exitY=0.5;exitDx=0;exitDy=0;entryX=1;entryY=0.5;entryDx=0;entryDy=0;" parent="1" source="hnjgq9xZv8DV5u2jE8Lt-21" target="hnjgq9xZv8DV5u2jE8Lt-34" edge="1">
          <mxGeometry relative="1" as="geometry">
            <mxPoint x="410" y="700" as="sourcePoint" />
            <mxPoint x="570" y="700" as="targetPoint" />
          </mxGeometry>
        </mxCell>
        <mxCell id="hnjgq9xZv8DV5u2jE8Lt-47" value="1" style="resizable=0;html=1;align=right;verticalAlign=bottom;" parent="hnjgq9xZv8DV5u2jE8Lt-46" connectable="0" vertex="1">
          <mxGeometry x="1" relative="1" as="geometry" />
        </mxCell>
        <mxCell id="hnjgq9xZv8DV5u2jE8Lt-48" value="Users" style="whiteSpace=wrap;html=1;align=center;" parent="1" vertex="1">
          <mxGeometry x="530" y="1210" width="100" height="40" as="geometry" />
        </mxCell>
        <mxCell id="hnjgq9xZv8DV5u2jE8Lt-49" value="id" style="ellipse;whiteSpace=wrap;html=1;align=center;fontStyle=4;" parent="1" vertex="1">
          <mxGeometry x="700" y="1300" width="100" height="40" as="geometry" />
        </mxCell>
        <mxCell id="hnjgq9xZv8DV5u2jE8Lt-50" value="" style="endArrow=none;html=1;rounded=0;entryX=1;entryY=1;entryDx=0;entryDy=0;exitX=0;exitY=0;exitDx=0;exitDy=0;" parent="1" source="hnjgq9xZv8DV5u2jE8Lt-49" target="hnjgq9xZv8DV5u2jE8Lt-48" edge="1">
          <mxGeometry relative="1" as="geometry">
            <mxPoint x="530" y="1070" as="sourcePoint" />
            <mxPoint x="690" y="1070" as="targetPoint" />
          </mxGeometry>
        </mxCell>
        <mxCell id="hnjgq9xZv8DV5u2jE8Lt-51" value="name" style="ellipse;whiteSpace=wrap;html=1;align=center;" parent="1" vertex="1">
          <mxGeometry x="390" y="1210" width="100" height="40" as="geometry" />
        </mxCell>
        <mxCell id="hnjgq9xZv8DV5u2jE8Lt-52" value="" style="endArrow=none;html=1;rounded=0;entryX=1;entryY=0.5;entryDx=0;entryDy=0;exitX=0;exitY=0.5;exitDx=0;exitDy=0;" parent="1" source="hnjgq9xZv8DV5u2jE8Lt-48" target="hnjgq9xZv8DV5u2jE8Lt-51" edge="1">
          <mxGeometry relative="1" as="geometry">
            <mxPoint x="579.9953390593274" y="1200.0021356237312" as="sourcePoint" />
            <mxPoint x="684.64" y="1315.8600000000001" as="targetPoint" />
          </mxGeometry>
        </mxCell>
        <mxCell id="hnjgq9xZv8DV5u2jE8Lt-53" value="address" style="ellipse;whiteSpace=wrap;html=1;align=center;" parent="1" vertex="1">
          <mxGeometry x="400" y="1280" width="100" height="40" as="geometry" />
        </mxCell>
        <mxCell id="hnjgq9xZv8DV5u2jE8Lt-54" value="" style="endArrow=none;html=1;rounded=0;exitX=0;exitY=1;exitDx=0;exitDy=0;" parent="1" source="hnjgq9xZv8DV5u2jE8Lt-48" target="hnjgq9xZv8DV5u2jE8Lt-53" edge="1">
          <mxGeometry relative="1" as="geometry">
            <mxPoint x="650" y="1200" as="sourcePoint" />
            <mxPoint x="540" y="1200" as="targetPoint" />
          </mxGeometry>
        </mxCell>
        <mxCell id="hnjgq9xZv8DV5u2jE8Lt-56" value="" style="endArrow=none;html=1;rounded=0;exitX=0.5;exitY=1;exitDx=0;exitDy=0;entryX=1;entryY=0.5;entryDx=0;entryDy=0;" parent="1" source="hnjgq9xZv8DV5u2jE8Lt-86" target="hnjgq9xZv8DV5u2jE8Lt-48" edge="1">
          <mxGeometry relative="1" as="geometry">
            <mxPoint x="637.5999999999999" y="1092.6000000000001" as="sourcePoint" />
            <mxPoint x="640" y="1230" as="targetPoint" />
          </mxGeometry>
        </mxCell>
        <mxCell id="hnjgq9xZv8DV5u2jE8Lt-60" value="" style="endArrow=none;html=1;rounded=0;entryX=0.25;entryY=1;entryDx=0;entryDy=0;exitX=0.5;exitY=0;exitDx=0;exitDy=0;" parent="1" source="hnjgq9xZv8DV5u2jE8Lt-61" target="hnjgq9xZv8DV5u2jE8Lt-48" edge="1">
          <mxGeometry relative="1" as="geometry">
            <mxPoint x="665" y="1300" as="sourcePoint" />
            <mxPoint x="715" y="1440" as="targetPoint" />
          </mxGeometry>
        </mxCell>
        <mxCell id="hnjgq9xZv8DV5u2jE8Lt-61" value="phone number" style="ellipse;whiteSpace=wrap;html=1;align=center;" parent="1" vertex="1">
          <mxGeometry x="490" y="1320" width="100" height="40" as="geometry" />
        </mxCell>
        <mxCell id="hnjgq9xZv8DV5u2jE8Lt-63" value="Supplier" style="whiteSpace=wrap;html=1;align=center;" parent="1" vertex="1">
          <mxGeometry x="940" y="1140" width="100" height="40" as="geometry" />
        </mxCell>
        <mxCell id="hnjgq9xZv8DV5u2jE8Lt-64" value="id" style="ellipse;whiteSpace=wrap;html=1;align=center;fontStyle=4;" parent="1" vertex="1">
          <mxGeometry x="840" y="1240" width="100" height="40" as="geometry" />
        </mxCell>
        <mxCell id="hnjgq9xZv8DV5u2jE8Lt-65" value="" style="endArrow=none;html=1;rounded=0;exitX=0.618;exitY=0.046;exitDx=0;exitDy=0;entryX=0;entryY=1;entryDx=0;entryDy=0;exitPerimeter=0;" parent="1" source="hnjgq9xZv8DV5u2jE8Lt-64" target="hnjgq9xZv8DV5u2jE8Lt-63" edge="1">
          <mxGeometry relative="1" as="geometry">
            <mxPoint x="530" y="1030" as="sourcePoint" />
            <mxPoint x="930" y="1130" as="targetPoint" />
          </mxGeometry>
        </mxCell>
        <mxCell id="hnjgq9xZv8DV5u2jE8Lt-66" value="name" style="ellipse;whiteSpace=wrap;html=1;align=center;" parent="1" vertex="1">
          <mxGeometry x="1070" y="1060" width="100" height="40" as="geometry" />
        </mxCell>
        <mxCell id="hnjgq9xZv8DV5u2jE8Lt-67" value="" style="endArrow=none;html=1;rounded=0;entryX=0;entryY=0.5;entryDx=0;entryDy=0;exitX=1;exitY=0;exitDx=0;exitDy=0;" parent="1" source="hnjgq9xZv8DV5u2jE8Lt-63" target="hnjgq9xZv8DV5u2jE8Lt-66" edge="1">
          <mxGeometry relative="1" as="geometry">
            <mxPoint x="579.9953390593274" y="1160.0021356237312" as="sourcePoint" />
            <mxPoint x="684.64" y="1275.8600000000001" as="targetPoint" />
          </mxGeometry>
        </mxCell>
        <mxCell id="hnjgq9xZv8DV5u2jE8Lt-68" value="address" style="ellipse;whiteSpace=wrap;html=1;align=center;" parent="1" vertex="1">
          <mxGeometry x="1070" y="1180" width="100" height="40" as="geometry" />
        </mxCell>
        <mxCell id="hnjgq9xZv8DV5u2jE8Lt-69" value="" style="endArrow=none;html=1;rounded=0;exitX=1;exitY=1;exitDx=0;exitDy=0;" parent="1" source="hnjgq9xZv8DV5u2jE8Lt-63" target="hnjgq9xZv8DV5u2jE8Lt-68" edge="1">
          <mxGeometry relative="1" as="geometry">
            <mxPoint x="650" y="1160" as="sourcePoint" />
            <mxPoint x="540" y="1160" as="targetPoint" />
          </mxGeometry>
        </mxCell>
        <mxCell id="hnjgq9xZv8DV5u2jE8Lt-72" value="" style="endArrow=none;html=1;rounded=0;exitX=0.365;exitY=-0.082;exitDx=0;exitDy=0;entryX=0.5;entryY=1;entryDx=0;entryDy=0;exitPerimeter=0;" parent="1" source="hnjgq9xZv8DV5u2jE8Lt-73" target="hnjgq9xZv8DV5u2jE8Lt-63" edge="1">
          <mxGeometry relative="1" as="geometry">
            <mxPoint x="1030" y="1270" as="sourcePoint" />
            <mxPoint x="715" y="1400" as="targetPoint" />
          </mxGeometry>
        </mxCell>
        <mxCell id="hnjgq9xZv8DV5u2jE8Lt-73" value="phone number" style="ellipse;whiteSpace=wrap;html=1;align=center;" parent="1" vertex="1">
          <mxGeometry x="990" y="1270" width="100" height="40" as="geometry" />
        </mxCell>
        <mxCell id="hnjgq9xZv8DV5u2jE8Lt-74" value="Transaction" style="whiteSpace=wrap;html=1;align=center;" parent="1" vertex="1">
          <mxGeometry x="600" y="880" width="100" height="40" as="geometry" />
        </mxCell>
        <mxCell id="hnjgq9xZv8DV5u2jE8Lt-75" value="id" style="ellipse;whiteSpace=wrap;html=1;align=center;fontStyle=4;" parent="1" vertex="1">
          <mxGeometry x="495" y="830" width="100" height="40" as="geometry" />
        </mxCell>
        <mxCell id="hnjgq9xZv8DV5u2jE8Lt-76" value="" style="endArrow=none;html=1;rounded=0;entryX=0;entryY=0;entryDx=0;entryDy=0;exitX=1;exitY=1;exitDx=0;exitDy=0;" parent="1" source="hnjgq9xZv8DV5u2jE8Lt-75" target="hnjgq9xZv8DV5u2jE8Lt-74" edge="1">
          <mxGeometry relative="1" as="geometry">
            <mxPoint x="510" y="960" as="sourcePoint" />
            <mxPoint x="670" y="960" as="targetPoint" />
          </mxGeometry>
        </mxCell>
        <mxCell id="hnjgq9xZv8DV5u2jE8Lt-77" value="date" style="ellipse;whiteSpace=wrap;html=1;align=center;" parent="1" vertex="1">
          <mxGeometry x="480" y="940" width="100" height="40" as="geometry" />
        </mxCell>
        <mxCell id="hnjgq9xZv8DV5u2jE8Lt-78" value="" style="endArrow=none;html=1;rounded=0;entryX=1;entryY=0.5;entryDx=0;entryDy=0;exitX=0.182;exitY=1.022;exitDx=0;exitDy=0;exitPerimeter=0;" parent="1" source="hnjgq9xZv8DV5u2jE8Lt-74" target="hnjgq9xZv8DV5u2jE8Lt-77" edge="1">
          <mxGeometry relative="1" as="geometry">
            <mxPoint x="559.9953390593274" y="1090.0021356237312" as="sourcePoint" />
            <mxPoint x="664.64" y="1205.8600000000001" as="targetPoint" />
          </mxGeometry>
        </mxCell>
        <mxCell id="hnjgq9xZv8DV5u2jE8Lt-79" value="transaction type" style="ellipse;whiteSpace=wrap;html=1;align=center;" parent="1" vertex="1">
          <mxGeometry x="730" y="810" width="100" height="40" as="geometry" />
        </mxCell>
        <mxCell id="hnjgq9xZv8DV5u2jE8Lt-80" value="" style="endArrow=none;html=1;rounded=0;exitX=1;exitY=0;exitDx=0;exitDy=0;" parent="1" source="hnjgq9xZv8DV5u2jE8Lt-74" target="hnjgq9xZv8DV5u2jE8Lt-79" edge="1">
          <mxGeometry relative="1" as="geometry">
            <mxPoint x="630" y="1090" as="sourcePoint" />
            <mxPoint x="520" y="1090" as="targetPoint" />
          </mxGeometry>
        </mxCell>
        <mxCell id="hnjgq9xZv8DV5u2jE8Lt-83" value="" style="endArrow=none;html=1;rounded=0;exitX=0.5;exitY=0;exitDx=0;exitDy=0;entryX=0.5;entryY=1;entryDx=0;entryDy=0;" parent="1" source="hnjgq9xZv8DV5u2jE8Lt-84" target="hnjgq9xZv8DV5u2jE8Lt-74" edge="1">
          <mxGeometry relative="1" as="geometry">
            <mxPoint x="570.8576007919664" y="1185.8258324824828" as="sourcePoint" />
            <mxPoint x="660" y="950" as="targetPoint" />
          </mxGeometry>
        </mxCell>
        <mxCell id="hnjgq9xZv8DV5u2jE8Lt-84" value="servered by" style="ellipse;whiteSpace=wrap;html=1;align=center;" parent="1" vertex="1">
          <mxGeometry x="570" y="980" width="100" height="40" as="geometry" />
        </mxCell>
        <mxCell id="hnjgq9xZv8DV5u2jE8Lt-86" value="username" style="ellipse;whiteSpace=wrap;html=1;align=center;" parent="1" vertex="1">
          <mxGeometry x="710" y="1220" width="100" height="40" as="geometry" />
        </mxCell>
        <mxCell id="hnjgq9xZv8DV5u2jE8Lt-87" value="product_image" style="ellipse;whiteSpace=wrap;html=1;align=center;" parent="1" vertex="1">
          <mxGeometry x="325" y="680" width="100" height="40" as="geometry" />
        </mxCell>
        <mxCell id="hnjgq9xZv8DV5u2jE8Lt-89" value="product_description" style="ellipse;whiteSpace=wrap;html=1;align=center;" parent="1" vertex="1">
          <mxGeometry x="70" y="670" width="130" height="40" as="geometry" />
        </mxCell>
        <mxCell id="B7kf37K8yEdbgKax0_8e-2" value="Transaction Detail" style="whiteSpace=wrap;html=1;align=center;" parent="1" vertex="1">
          <mxGeometry x="40.47" y="800" width="130" height="40" as="geometry" />
        </mxCell>
        <mxCell id="B7kf37K8yEdbgKax0_8e-3" value="id" style="ellipse;whiteSpace=wrap;html=1;align=center;fontStyle=4;" parent="1" vertex="1">
          <mxGeometry x="-80" y="750" width="100" height="40" as="geometry" />
        </mxCell>
        <mxCell id="B7kf37K8yEdbgKax0_8e-4" value="" style="endArrow=none;html=1;rounded=0;entryX=0;entryY=0;entryDx=0;entryDy=0;exitX=1;exitY=1;exitDx=0;exitDy=0;" parent="1" source="B7kf37K8yEdbgKax0_8e-3" target="B7kf37K8yEdbgKax0_8e-2" edge="1">
          <mxGeometry relative="1" as="geometry">
            <mxPoint x="-39.53" y="880" as="sourcePoint" />
            <mxPoint x="120.47" y="880" as="targetPoint" />
          </mxGeometry>
        </mxCell>
        <mxCell id="B7kf37K8yEdbgKax0_8e-5" value="" style="endArrow=none;html=1;rounded=0;entryX=1;entryY=0.5;entryDx=0;entryDy=0;" parent="1" target="B7kf37K8yEdbgKax0_8e-13" edge="1">
          <mxGeometry relative="1" as="geometry">
            <mxPoint x="40" y="820" as="sourcePoint" />
            <mxPoint x="20" y="880" as="targetPoint" />
          </mxGeometry>
        </mxCell>
        <mxCell id="B7kf37K8yEdbgKax0_8e-6" value="address" style="ellipse;whiteSpace=wrap;html=1;align=center;" parent="1" vertex="1">
          <mxGeometry x="-80" y="860" width="100" height="40" as="geometry" />
        </mxCell>
        <mxCell id="B7kf37K8yEdbgKax0_8e-7" value="" style="endArrow=none;html=1;rounded=0;exitX=0;exitY=1;exitDx=0;exitDy=0;" parent="1" source="B7kf37K8yEdbgKax0_8e-2" target="B7kf37K8yEdbgKax0_8e-6" edge="1">
          <mxGeometry relative="1" as="geometry">
            <mxPoint x="80.47" y="1010" as="sourcePoint" />
            <mxPoint x="-29.53" y="1010" as="targetPoint" />
          </mxGeometry>
        </mxCell>
        <mxCell id="B7kf37K8yEdbgKax0_8e-9" value="" style="endArrow=none;html=1;rounded=0;entryX=1;entryY=1;entryDx=0;entryDy=0;exitX=0.5;exitY=0;exitDx=0;exitDy=0;" parent="1" source="B7kf37K8yEdbgKax0_8e-17" target="B7kf37K8yEdbgKax0_8e-2" edge="1">
          <mxGeometry relative="1" as="geometry">
            <mxPoint x="240.47" y="770" as="sourcePoint" />
            <mxPoint x="170.47" y="1020" as="targetPoint" />
          </mxGeometry>
        </mxCell>
        <mxCell id="B7kf37K8yEdbgKax0_8e-10" value="" style="endArrow=none;html=1;rounded=0;exitX=0.5;exitY=0;exitDx=0;exitDy=0;entryX=0.25;entryY=1;entryDx=0;entryDy=0;" parent="1" source="B7kf37K8yEdbgKax0_8e-11" target="B7kf37K8yEdbgKax0_8e-2" edge="1">
          <mxGeometry relative="1" as="geometry">
            <mxPoint x="21.327600791966432" y="1105.8258324824828" as="sourcePoint" />
            <mxPoint x="145.47" y="1250" as="targetPoint" />
          </mxGeometry>
        </mxCell>
        <mxCell id="B7kf37K8yEdbgKax0_8e-11" value="phone number" style="ellipse;whiteSpace=wrap;html=1;align=center;" parent="1" vertex="1">
          <mxGeometry x="-40" y="900" width="100" height="40" as="geometry" />
        </mxCell>
        <mxCell id="B7kf37K8yEdbgKax0_8e-13" value="transaction id" style="ellipse;whiteSpace=wrap;html=1;align=center;" parent="1" vertex="1">
          <mxGeometry x="-100" y="800" width="100" height="40" as="geometry" />
        </mxCell>
        <mxCell id="B7kf37K8yEdbgKax0_8e-15" value="" style="endArrow=none;html=1;rounded=0;exitX=0.5;exitY=1;exitDx=0;exitDy=0;entryX=0.25;entryY=0;entryDx=0;entryDy=0;" parent="1" source="B7kf37K8yEdbgKax0_8e-16" target="B7kf37K8yEdbgKax0_8e-2" edge="1">
          <mxGeometry relative="1" as="geometry">
            <mxPoint x="125.61552060382766" y="674.2255678634544" as="sourcePoint" />
            <mxPoint x="100" y="800" as="targetPoint" />
          </mxGeometry>
        </mxCell>
        <mxCell id="B7kf37K8yEdbgKax0_8e-16" value="product id" style="ellipse;whiteSpace=wrap;html=1;align=center;" parent="1" vertex="1">
          <mxGeometry x="-10" y="710" width="100" height="40" as="geometry" />
        </mxCell>
        <mxCell id="B7kf37K8yEdbgKax0_8e-17" value="qty" style="ellipse;whiteSpace=wrap;html=1;align=center;" parent="1" vertex="1">
          <mxGeometry x="165" y="880" width="100" height="40" as="geometry" />
        </mxCell>
        <mxCell id="B7kf37K8yEdbgKax0_8e-18" value="" style="endArrow=none;html=1;rounded=0;entryX=0.5;entryY=1;entryDx=0;entryDy=0;exitX=0.5;exitY=0;exitDx=0;exitDy=0;" parent="1" source="B7kf37K8yEdbgKax0_8e-19" target="B7kf37K8yEdbgKax0_8e-2" edge="1">
          <mxGeometry relative="1" as="geometry">
            <mxPoint x="250.46999999999954" y="780" as="sourcePoint" />
            <mxPoint x="180.46999999999954" y="810" as="targetPoint" />
          </mxGeometry>
        </mxCell>
        <mxCell id="B7kf37K8yEdbgKax0_8e-19" value="amount" style="ellipse;whiteSpace=wrap;html=1;align=center;" parent="1" vertex="1">
          <mxGeometry x="55.47" y="910" width="100" height="40" as="geometry" />
        </mxCell>
        <mxCell id="B7kf37K8yEdbgKax0_8e-22" value="" style="endArrow=none;html=1;rounded=0;entryX=0.75;entryY=1;entryDx=0;entryDy=0;exitX=0.5;exitY=0;exitDx=0;exitDy=0;" parent="1" source="B7kf37K8yEdbgKax0_8e-23" target="hnjgq9xZv8DV5u2jE8Lt-48" edge="1">
          <mxGeometry relative="1" as="geometry">
            <mxPoint x="780.9999999999995" y="1260" as="sourcePoint" />
            <mxPoint x="730" y="1216" as="targetPoint" />
          </mxGeometry>
        </mxCell>
        <mxCell id="B7kf37K8yEdbgKax0_8e-23" value="password" style="ellipse;whiteSpace=wrap;html=1;align=center;" parent="1" vertex="1">
          <mxGeometry x="600" y="1320" width="100" height="40" as="geometry" />
        </mxCell>
        <mxCell id="B7kf37K8yEdbgKax0_8e-40" value="Customers" style="whiteSpace=wrap;html=1;align=center;" parent="1" vertex="1">
          <mxGeometry x="80" y="1140" width="100" height="40" as="geometry" />
        </mxCell>
        <mxCell id="B7kf37K8yEdbgKax0_8e-41" value="id" style="ellipse;whiteSpace=wrap;html=1;align=center;fontStyle=4;" parent="1" vertex="1">
          <mxGeometry x="-40" y="1070" width="100" height="40" as="geometry" />
        </mxCell>
        <mxCell id="B7kf37K8yEdbgKax0_8e-42" value="" style="endArrow=none;html=1;rounded=0;exitX=0.67;exitY=0.981;exitDx=0;exitDy=0;entryX=0;entryY=0;entryDx=0;entryDy=0;exitPerimeter=0;" parent="1" source="B7kf37K8yEdbgKax0_8e-41" target="B7kf37K8yEdbgKax0_8e-40" edge="1">
          <mxGeometry relative="1" as="geometry">
            <mxPoint x="-330" y="1030" as="sourcePoint" />
            <mxPoint x="70" y="1130" as="targetPoint" />
          </mxGeometry>
        </mxCell>
        <mxCell id="B7kf37K8yEdbgKax0_8e-43" value="name" style="ellipse;whiteSpace=wrap;html=1;align=center;" parent="1" vertex="1">
          <mxGeometry x="-30" y="1210" width="100" height="40" as="geometry" />
        </mxCell>
        <mxCell id="B7kf37K8yEdbgKax0_8e-44" value="" style="endArrow=none;html=1;rounded=0;entryX=0.5;entryY=0;entryDx=0;entryDy=0;exitX=0;exitY=1;exitDx=0;exitDy=0;" parent="1" source="B7kf37K8yEdbgKax0_8e-40" target="B7kf37K8yEdbgKax0_8e-43" edge="1">
          <mxGeometry relative="1" as="geometry">
            <mxPoint x="-280.0046609406726" y="1160.0021356237312" as="sourcePoint" />
            <mxPoint x="-175.36" y="1275.8600000000001" as="targetPoint" />
          </mxGeometry>
        </mxCell>
        <mxCell id="B7kf37K8yEdbgKax0_8e-45" value="address" style="ellipse;whiteSpace=wrap;html=1;align=center;" parent="1" vertex="1">
          <mxGeometry x="200" y="1210" width="100" height="40" as="geometry" />
        </mxCell>
        <mxCell id="B7kf37K8yEdbgKax0_8e-46" value="" style="endArrow=none;html=1;rounded=0;exitX=1;exitY=1;exitDx=0;exitDy=0;" parent="1" source="B7kf37K8yEdbgKax0_8e-40" target="B7kf37K8yEdbgKax0_8e-45" edge="1">
          <mxGeometry relative="1" as="geometry">
            <mxPoint x="-210" y="1160" as="sourcePoint" />
            <mxPoint x="-320" y="1160" as="targetPoint" />
          </mxGeometry>
        </mxCell>
        <mxCell id="B7kf37K8yEdbgKax0_8e-47" value="" style="endArrow=none;html=1;rounded=0;exitX=0.5;exitY=0;exitDx=0;exitDy=0;entryX=0.5;entryY=1;entryDx=0;entryDy=0;" parent="1" source="B7kf37K8yEdbgKax0_8e-48" target="B7kf37K8yEdbgKax0_8e-40" edge="1">
          <mxGeometry relative="1" as="geometry">
            <mxPoint x="-269.14239920803357" y="1255.8258324824828" as="sourcePoint" />
            <mxPoint x="-145" y="1400" as="targetPoint" />
          </mxGeometry>
        </mxCell>
        <mxCell id="B7kf37K8yEdbgKax0_8e-48" value="phone number" style="ellipse;whiteSpace=wrap;html=1;align=center;" parent="1" vertex="1">
          <mxGeometry x="80" y="1250" width="100" height="40" as="geometry" />
        </mxCell>
        <mxCell id="B7kf37K8yEdbgKax0_8e-67" value="Memiliki" style="shape=rhombus;perimeter=rhombusPerimeter;whiteSpace=wrap;html=1;align=center;" parent="1" vertex="1">
          <mxGeometry x="370" y="790" width="120" height="60" as="geometry" />
        </mxCell>
        <mxCell id="B7kf37K8yEdbgKax0_8e-68" value="" style="endArrow=none;html=1;rounded=0;exitX=1;exitY=0.5;exitDx=0;exitDy=0;entryX=0;entryY=0.5;entryDx=0;entryDy=0;" parent="1" source="B7kf37K8yEdbgKax0_8e-2" target="B7kf37K8yEdbgKax0_8e-67" edge="1">
          <mxGeometry relative="1" as="geometry">
            <mxPoint x="205.47" y="830" as="sourcePoint" />
            <mxPoint x="359.9983018867922" y="827.7358490566037" as="targetPoint" />
          </mxGeometry>
        </mxCell>
        <mxCell id="B7kf37K8yEdbgKax0_8e-69" value="N" style="resizable=0;html=1;align=right;verticalAlign=bottom;" parent="B7kf37K8yEdbgKax0_8e-68" connectable="0" vertex="1">
          <mxGeometry x="1" relative="1" as="geometry" />
        </mxCell>
        <mxCell id="B7kf37K8yEdbgKax0_8e-70" value="" style="endArrow=none;html=1;rounded=0;exitX=0.5;exitY=0;exitDx=0;exitDy=0;entryX=1;entryY=0.5;entryDx=0;entryDy=0;" parent="1" source="hnjgq9xZv8DV5u2jE8Lt-74" target="B7kf37K8yEdbgKax0_8e-67" edge="1">
          <mxGeometry relative="1" as="geometry">
            <mxPoint x="590" y="900" as="sourcePoint" />
            <mxPoint x="505" y="900" as="targetPoint" />
            <Array as="points">
              <mxPoint x="650" y="820" />
            </Array>
          </mxGeometry>
        </mxCell>
        <mxCell id="B7kf37K8yEdbgKax0_8e-71" value="1" style="resizable=0;html=1;align=right;verticalAlign=bottom;" parent="B7kf37K8yEdbgKax0_8e-70" connectable="0" vertex="1">
          <mxGeometry x="1" relative="1" as="geometry" />
        </mxCell>
        <mxCell id="B7kf37K8yEdbgKax0_8e-72" value="Memiliki" style="shape=rhombus;perimeter=rhombusPerimeter;whiteSpace=wrap;html=1;align=center;" parent="1" vertex="1">
          <mxGeometry x="930" y="870" width="120" height="60" as="geometry" />
        </mxCell>
        <mxCell id="B7kf37K8yEdbgKax0_8e-73" value="" style="endArrow=none;html=1;rounded=0;exitX=1;exitY=0.5;exitDx=0;exitDy=0;" parent="1" source="hnjgq9xZv8DV5u2jE8Lt-74" target="B7kf37K8yEdbgKax0_8e-72" edge="1">
          <mxGeometry relative="1" as="geometry">
            <mxPoint x="800" y="900" as="sourcePoint" />
            <mxPoint x="950" y="1030" as="targetPoint" />
          </mxGeometry>
        </mxCell>
        <mxCell id="B7kf37K8yEdbgKax0_8e-74" value="N" style="resizable=0;html=1;align=right;verticalAlign=bottom;" parent="B7kf37K8yEdbgKax0_8e-73" connectable="0" vertex="1">
          <mxGeometry x="1" relative="1" as="geometry" />
        </mxCell>
        <mxCell id="B7kf37K8yEdbgKax0_8e-75" value="" style="endArrow=none;html=1;rounded=0;entryX=0.5;entryY=1;entryDx=0;entryDy=0;" parent="1" source="hnjgq9xZv8DV5u2jE8Lt-63" target="B7kf37K8yEdbgKax0_8e-72" edge="1">
          <mxGeometry relative="1" as="geometry">
            <mxPoint x="1100" y="900" as="sourcePoint" />
            <mxPoint x="1060" y="980" as="targetPoint" />
          </mxGeometry>
        </mxCell>
        <mxCell id="B7kf37K8yEdbgKax0_8e-76" value="N" style="resizable=0;html=1;align=right;verticalAlign=bottom;" parent="B7kf37K8yEdbgKax0_8e-75" connectable="0" vertex="1">
          <mxGeometry x="1" relative="1" as="geometry" />
        </mxCell>
        <mxCell id="B7kf37K8yEdbgKax0_8e-77" value="" style="endArrow=none;html=1;rounded=0;exitX=0.5;exitY=0;exitDx=0;exitDy=0;entryX=1;entryY=1;entryDx=0;entryDy=0;" parent="1" source="B7kf37K8yEdbgKax0_8e-78" target="hnjgq9xZv8DV5u2jE8Lt-74" edge="1">
          <mxGeometry relative="1" as="geometry">
            <mxPoint x="675.8576007919664" y="1175.8258324824828" as="sourcePoint" />
            <mxPoint x="780" y="910" as="targetPoint" />
          </mxGeometry>
        </mxCell>
        <mxCell id="B7kf37K8yEdbgKax0_8e-78" value="transaction by" style="ellipse;whiteSpace=wrap;html=1;align=center;" parent="1" vertex="1">
          <mxGeometry x="720" y="950" width="100" height="40" as="geometry" />
        </mxCell>
        <mxCell id="B7kf37K8yEdbgKax0_8e-85" value="Memiliki" style="shape=rhombus;perimeter=rhombusPerimeter;whiteSpace=wrap;html=1;align=center;" parent="1" vertex="1">
          <mxGeometry x="520" y="1050" width="120" height="60" as="geometry" />
        </mxCell>
        <mxCell id="B7kf37K8yEdbgKax0_8e-86" value="" style="endArrow=none;html=1;rounded=0;exitX=0.5;exitY=0;exitDx=0;exitDy=0;entryX=0.5;entryY=1;entryDx=0;entryDy=0;" parent="1" source="hnjgq9xZv8DV5u2jE8Lt-48" target="B7kf37K8yEdbgKax0_8e-85" edge="1">
          <mxGeometry relative="1" as="geometry">
            <mxPoint x="510" y="1080" as="sourcePoint" />
            <mxPoint x="660" y="1210" as="targetPoint" />
          </mxGeometry>
        </mxCell>
        <mxCell id="B7kf37K8yEdbgKax0_8e-87" value="N" style="resizable=0;html=1;align=right;verticalAlign=bottom;" parent="B7kf37K8yEdbgKax0_8e-86" connectable="0" vertex="1">
          <mxGeometry x="1" relative="1" as="geometry" />
        </mxCell>
        <mxCell id="B7kf37K8yEdbgKax0_8e-88" value="" style="endArrow=none;html=1;rounded=0;entryX=1;entryY=0.5;entryDx=0;entryDy=0;" parent="1" target="B7kf37K8yEdbgKax0_8e-85" edge="1">
          <mxGeometry relative="1" as="geometry">
            <mxPoint x="680" y="920" as="sourcePoint" />
            <mxPoint x="770" y="1160" as="targetPoint" />
            <Array as="points">
              <mxPoint x="680" y="1080" />
            </Array>
          </mxGeometry>
        </mxCell>
        <mxCell id="B7kf37K8yEdbgKax0_8e-89" value="N" style="resizable=0;html=1;align=right;verticalAlign=bottom;" parent="B7kf37K8yEdbgKax0_8e-88" connectable="0" vertex="1">
          <mxGeometry x="1" relative="1" as="geometry" />
        </mxCell>
        <mxCell id="B7kf37K8yEdbgKax0_8e-90" value="Memiliki" style="shape=rhombus;perimeter=rhombusPerimeter;whiteSpace=wrap;html=1;align=center;" parent="1" vertex="1">
          <mxGeometry x="240" y="1050" width="120" height="60" as="geometry" />
        </mxCell>
        <mxCell id="B7kf37K8yEdbgKax0_8e-91" value="" style="endArrow=none;html=1;rounded=0;exitX=0.5;exitY=0;exitDx=0;exitDy=0;" parent="1" source="B7kf37K8yEdbgKax0_8e-40" target="B7kf37K8yEdbgKax0_8e-90" edge="1">
          <mxGeometry relative="1" as="geometry">
            <mxPoint x="160" y="1080" as="sourcePoint" />
            <mxPoint x="310" y="1210" as="targetPoint" />
            <Array as="points">
              <mxPoint x="130" y="1080" />
            </Array>
          </mxGeometry>
        </mxCell>
        <mxCell id="B7kf37K8yEdbgKax0_8e-92" value="N" style="resizable=0;html=1;align=right;verticalAlign=bottom;" parent="B7kf37K8yEdbgKax0_8e-91" connectable="0" vertex="1">
          <mxGeometry x="1" relative="1" as="geometry" />
        </mxCell>
        <mxCell id="B7kf37K8yEdbgKax0_8e-93" value="" style="endArrow=none;html=1;rounded=0;exitX=0;exitY=0.75;exitDx=0;exitDy=0;entryX=0.5;entryY=0;entryDx=0;entryDy=0;" parent="1" source="hnjgq9xZv8DV5u2jE8Lt-74" target="B7kf37K8yEdbgKax0_8e-90" edge="1">
          <mxGeometry relative="1" as="geometry">
            <mxPoint x="460" y="1080" as="sourcePoint" />
            <mxPoint x="420" y="1160" as="targetPoint" />
            <Array as="points">
              <mxPoint x="300" y="910" />
            </Array>
          </mxGeometry>
        </mxCell>
        <mxCell id="B7kf37K8yEdbgKax0_8e-94" value="N" style="resizable=0;html=1;align=right;verticalAlign=bottom;" parent="B7kf37K8yEdbgKax0_8e-93" connectable="0" vertex="1">
          <mxGeometry x="1" relative="1" as="geometry" />
        </mxCell>
        <mxCell id="B7kf37K8yEdbgKax0_8e-95" value="Memiliki" style="shape=rhombus;perimeter=rhombusPerimeter;whiteSpace=wrap;html=1;align=center;" parent="1" vertex="1">
          <mxGeometry x="200" y="710" width="120" height="60" as="geometry" />
        </mxCell>
        <mxCell id="B7kf37K8yEdbgKax0_8e-96" value="" style="endArrow=none;html=1;rounded=0;exitX=0.5;exitY=0;exitDx=0;exitDy=0;" parent="1" source="B7kf37K8yEdbgKax0_8e-2" target="B7kf37K8yEdbgKax0_8e-95" edge="1">
          <mxGeometry relative="1" as="geometry">
            <mxPoint x="110" y="740" as="sourcePoint" />
            <mxPoint x="260" y="870" as="targetPoint" />
            <Array as="points">
              <mxPoint x="105" y="740" />
            </Array>
          </mxGeometry>
        </mxCell>
        <mxCell id="B7kf37K8yEdbgKax0_8e-97" value="N" style="resizable=0;html=1;align=right;verticalAlign=bottom;" parent="B7kf37K8yEdbgKax0_8e-96" connectable="0" vertex="1">
          <mxGeometry x="1" relative="1" as="geometry" />
        </mxCell>
        <mxCell id="B7kf37K8yEdbgKax0_8e-98" value="" style="endArrow=none;html=1;rounded=0;exitX=0.5;exitY=1;exitDx=0;exitDy=0;entryX=0.5;entryY=0;entryDx=0;entryDy=0;" parent="1" source="hnjgq9xZv8DV5u2jE8Lt-1" target="B7kf37K8yEdbgKax0_8e-95" edge="1">
          <mxGeometry relative="1" as="geometry">
            <mxPoint x="410" y="740" as="sourcePoint" />
            <mxPoint x="370" y="820" as="targetPoint" />
          </mxGeometry>
        </mxCell>
        <mxCell id="B7kf37K8yEdbgKax0_8e-99" value="1" style="resizable=0;html=1;align=right;verticalAlign=bottom;" parent="B7kf37K8yEdbgKax0_8e-98" connectable="0" vertex="1">
          <mxGeometry x="1" relative="1" as="geometry" />
        </mxCell>
      </root>
    </mxGraphModel>
  </diagram>
  <diagram name="Use Case" id="WnRiusSpE1RLMCwFqKuB">
    <mxGraphModel dx="1765" dy="765" grid="1" gridSize="10" guides="1" tooltips="1" connect="1" arrows="1" fold="1" page="1" pageScale="1" pageWidth="850" pageHeight="1100" math="0" shadow="0">
      <root>
        <mxCell id="0" />
        <mxCell id="1" parent="0" />
        <mxCell id="RiPcWfG2KHbo6biKZd59-33" style="edgeStyle=orthogonalEdgeStyle;rounded=0;orthogonalLoop=1;jettySize=auto;html=1;exitX=0.5;exitY=0.5;exitDx=0;exitDy=0;exitPerimeter=0;entryX=0;entryY=0.5;entryDx=0;entryDy=0;" parent="1" source="RiPcWfG2KHbo6biKZd59-1" target="RiPcWfG2KHbo6biKZd59-22" edge="1">
          <mxGeometry relative="1" as="geometry">
            <Array as="points">
              <mxPoint x="170" y="380" />
              <mxPoint x="170" y="85" />
            </Array>
          </mxGeometry>
        </mxCell>
        <mxCell id="RiPcWfG2KHbo6biKZd59-34" style="edgeStyle=orthogonalEdgeStyle;rounded=0;orthogonalLoop=1;jettySize=auto;html=1;exitX=0.5;exitY=0.5;exitDx=0;exitDy=0;exitPerimeter=0;entryX=0;entryY=0.5;entryDx=0;entryDy=0;" parent="1" source="RiPcWfG2KHbo6biKZd59-1" target="RiPcWfG2KHbo6biKZd59-24" edge="1">
          <mxGeometry relative="1" as="geometry">
            <Array as="points">
              <mxPoint x="170" y="380" />
              <mxPoint x="170" y="165" />
            </Array>
          </mxGeometry>
        </mxCell>
        <mxCell id="RiPcWfG2KHbo6biKZd59-35" style="edgeStyle=orthogonalEdgeStyle;rounded=0;orthogonalLoop=1;jettySize=auto;html=1;exitX=0.5;exitY=0.5;exitDx=0;exitDy=0;exitPerimeter=0;entryX=0;entryY=0.5;entryDx=0;entryDy=0;" parent="1" source="RiPcWfG2KHbo6biKZd59-1" target="RiPcWfG2KHbo6biKZd59-16" edge="1">
          <mxGeometry relative="1" as="geometry">
            <Array as="points">
              <mxPoint x="170" y="380" />
              <mxPoint x="170" y="240" />
            </Array>
          </mxGeometry>
        </mxCell>
        <mxCell id="RiPcWfG2KHbo6biKZd59-36" style="edgeStyle=orthogonalEdgeStyle;rounded=0;orthogonalLoop=1;jettySize=auto;html=1;exitX=0.5;exitY=0.5;exitDx=0;exitDy=0;exitPerimeter=0;entryX=0;entryY=0.5;entryDx=0;entryDy=0;" parent="1" source="RiPcWfG2KHbo6biKZd59-1" target="RiPcWfG2KHbo6biKZd59-17" edge="1">
          <mxGeometry relative="1" as="geometry" />
        </mxCell>
        <mxCell id="RiPcWfG2KHbo6biKZd59-37" style="edgeStyle=orthogonalEdgeStyle;rounded=0;orthogonalLoop=1;jettySize=auto;html=1;exitX=0.5;exitY=0.5;exitDx=0;exitDy=0;exitPerimeter=0;entryX=0;entryY=0.5;entryDx=0;entryDy=0;" parent="1" source="RiPcWfG2KHbo6biKZd59-1" target="RiPcWfG2KHbo6biKZd59-28" edge="1">
          <mxGeometry relative="1" as="geometry" />
        </mxCell>
        <mxCell id="RiPcWfG2KHbo6biKZd59-38" style="edgeStyle=orthogonalEdgeStyle;rounded=0;orthogonalLoop=1;jettySize=auto;html=1;exitX=0.5;exitY=0.5;exitDx=0;exitDy=0;exitPerimeter=0;entryX=0;entryY=0.5;entryDx=0;entryDy=0;" parent="1" source="RiPcWfG2KHbo6biKZd59-1" target="RiPcWfG2KHbo6biKZd59-29" edge="1">
          <mxGeometry relative="1" as="geometry">
            <Array as="points">
              <mxPoint x="170" y="380" />
              <mxPoint x="170" y="440" />
            </Array>
          </mxGeometry>
        </mxCell>
        <mxCell id="RiPcWfG2KHbo6biKZd59-39" style="edgeStyle=orthogonalEdgeStyle;rounded=0;orthogonalLoop=1;jettySize=auto;html=1;exitX=0.5;exitY=0.5;exitDx=0;exitDy=0;exitPerimeter=0;entryX=0;entryY=0.5;entryDx=0;entryDy=0;" parent="1" source="RiPcWfG2KHbo6biKZd59-1" target="RiPcWfG2KHbo6biKZd59-30" edge="1">
          <mxGeometry relative="1" as="geometry">
            <Array as="points">
              <mxPoint x="170" y="380" />
              <mxPoint x="170" y="500" />
            </Array>
          </mxGeometry>
        </mxCell>
        <mxCell id="RiPcWfG2KHbo6biKZd59-40" style="edgeStyle=orthogonalEdgeStyle;rounded=0;orthogonalLoop=1;jettySize=auto;html=1;exitX=0.5;exitY=0.5;exitDx=0;exitDy=0;exitPerimeter=0;entryX=0;entryY=0.5;entryDx=0;entryDy=0;" parent="1" source="RiPcWfG2KHbo6biKZd59-1" target="RiPcWfG2KHbo6biKZd59-31" edge="1">
          <mxGeometry relative="1" as="geometry">
            <Array as="points">
              <mxPoint x="170" y="380" />
              <mxPoint x="170" y="580" />
            </Array>
          </mxGeometry>
        </mxCell>
        <mxCell id="RiPcWfG2KHbo6biKZd59-41" style="edgeStyle=orthogonalEdgeStyle;rounded=0;orthogonalLoop=1;jettySize=auto;html=1;exitX=0.5;exitY=0.5;exitDx=0;exitDy=0;exitPerimeter=0;entryX=0;entryY=0.5;entryDx=0;entryDy=0;" parent="1" source="RiPcWfG2KHbo6biKZd59-1" target="RiPcWfG2KHbo6biKZd59-32" edge="1">
          <mxGeometry relative="1" as="geometry">
            <Array as="points">
              <mxPoint x="170" y="380" />
              <mxPoint x="170" y="680" />
            </Array>
          </mxGeometry>
        </mxCell>
        <mxCell id="RiPcWfG2KHbo6biKZd59-1" value="User/Admin" style="shape=umlActor;verticalLabelPosition=bottom;verticalAlign=top;html=1;outlineConnect=0;" parent="1" vertex="1">
          <mxGeometry x="30" y="350" width="30" height="60" as="geometry" />
        </mxCell>
        <mxCell id="RiPcWfG2KHbo6biKZd59-16" value="Login" style="ellipse;whiteSpace=wrap;html=1;" parent="1" vertex="1">
          <mxGeometry x="280" y="220" width="80" height="40" as="geometry" />
        </mxCell>
        <mxCell id="RiPcWfG2KHbo6biKZd59-17" value="Membuat transaksi" style="ellipse;whiteSpace=wrap;html=1;" parent="1" vertex="1">
          <mxGeometry x="280" y="280" width="90" height="40" as="geometry" />
        </mxCell>
        <mxCell id="RiPcWfG2KHbo6biKZd59-22" value="Mengelola Master Produk" style="ellipse;whiteSpace=wrap;html=1;" parent="1" vertex="1">
          <mxGeometry x="270" y="60" width="90" height="50" as="geometry" />
        </mxCell>
        <mxCell id="RiPcWfG2KHbo6biKZd59-24" value="Mengelola Master Kategori Produk" style="ellipse;whiteSpace=wrap;html=1;" parent="1" vertex="1">
          <mxGeometry x="270" y="140" width="90" height="50" as="geometry" />
        </mxCell>
        <mxCell id="RiPcWfG2KHbo6biKZd59-28" value="Membuat laporan" style="ellipse;whiteSpace=wrap;html=1;" parent="1" vertex="1">
          <mxGeometry x="280" y="350" width="110" height="50" as="geometry" />
        </mxCell>
        <mxCell id="RiPcWfG2KHbo6biKZd59-29" value="Logout" style="ellipse;whiteSpace=wrap;html=1;" parent="1" vertex="1">
          <mxGeometry x="290" y="420" width="80" height="40" as="geometry" />
        </mxCell>
        <mxCell id="RiPcWfG2KHbo6biKZd59-30" value="Mengelola Master User" style="ellipse;whiteSpace=wrap;html=1;" parent="1" vertex="1">
          <mxGeometry x="290" y="470" width="100" height="60" as="geometry" />
        </mxCell>
        <mxCell id="RiPcWfG2KHbo6biKZd59-31" value="Mengelola Master Supplier" style="ellipse;whiteSpace=wrap;html=1;" parent="1" vertex="1">
          <mxGeometry x="290" y="550" width="100" height="60" as="geometry" />
        </mxCell>
        <mxCell id="RiPcWfG2KHbo6biKZd59-32" value="Mengelola Master Pelanggan" style="ellipse;whiteSpace=wrap;html=1;" parent="1" vertex="1">
          <mxGeometry x="290" y="650" width="100" height="60" as="geometry" />
        </mxCell>
        <mxCell id="G6AIQF2d4yNAJN_18g5P-1" value="frame" style="shape=umlFrame;whiteSpace=wrap;html=1;" parent="1" vertex="1">
          <mxGeometry x="120" y="40" width="490" height="700" as="geometry" />
        </mxCell>
      </root>
    </mxGraphModel>
  </diagram>
  <diagram name="Activity" id="GZCPyVh2-OlX5AtcogZQ">
    <mxGraphModel dx="2428" dy="2153" grid="1" gridSize="10" guides="1" tooltips="1" connect="1" arrows="1" fold="1" page="1" pageScale="1" pageWidth="850" pageHeight="1100" math="0" shadow="0">
      <root>
        <mxCell id="0" />
        <mxCell id="1" parent="0" />
        <mxCell id="OkoaHlsaTnycTt4qskfI-3" value="Activity" style="rounded=1;whiteSpace=wrap;html=1;arcSize=40;fontColor=#000000;fillColor=#ffffc0;strokeColor=#ff0000;" parent="1" vertex="1">
          <mxGeometry x="380" y="30" width="120" height="40" as="geometry" />
        </mxCell>
        <mxCell id="2S_-wQ4N1EVncuiUFFvf-4" value="" style="shape=table;startSize=0;container=1;collapsible=0;childLayout=tableLayout;" parent="1" vertex="1">
          <mxGeometry x="180" y="-140" width="550" height="580" as="geometry" />
        </mxCell>
        <mxCell id="2S_-wQ4N1EVncuiUFFvf-5" value="" style="shape=tableRow;horizontal=0;startSize=0;swimlaneHead=0;swimlaneBody=0;top=0;left=0;bottom=0;right=0;collapsible=0;dropTarget=0;fillColor=none;points=[[0,0.5],[1,0.5]];portConstraint=eastwest;" parent="2S_-wQ4N1EVncuiUFFvf-4" vertex="1">
          <mxGeometry width="550" height="51" as="geometry" />
        </mxCell>
        <mxCell id="2S_-wQ4N1EVncuiUFFvf-6" value="User/Admin" style="shape=partialRectangle;html=1;whiteSpace=wrap;connectable=0;overflow=hidden;fillColor=none;top=0;left=0;bottom=0;right=0;pointerEvents=1;" parent="2S_-wQ4N1EVncuiUFFvf-5" vertex="1">
          <mxGeometry width="260" height="51" as="geometry">
            <mxRectangle width="260" height="51" as="alternateBounds" />
          </mxGeometry>
        </mxCell>
        <mxCell id="2S_-wQ4N1EVncuiUFFvf-7" value="System" style="shape=partialRectangle;html=1;whiteSpace=wrap;connectable=0;overflow=hidden;fillColor=none;top=0;left=0;bottom=0;right=0;pointerEvents=1;" parent="2S_-wQ4N1EVncuiUFFvf-5" vertex="1">
          <mxGeometry x="260" width="290" height="51" as="geometry">
            <mxRectangle width="290" height="51" as="alternateBounds" />
          </mxGeometry>
        </mxCell>
        <mxCell id="2S_-wQ4N1EVncuiUFFvf-8" value="" style="shape=tableRow;horizontal=0;startSize=0;swimlaneHead=0;swimlaneBody=0;top=0;left=0;bottom=0;right=0;collapsible=0;dropTarget=0;fillColor=none;points=[[0,0.5],[1,0.5]];portConstraint=eastwest;" parent="2S_-wQ4N1EVncuiUFFvf-4" vertex="1">
          <mxGeometry y="51" width="550" height="529" as="geometry" />
        </mxCell>
        <mxCell id="2S_-wQ4N1EVncuiUFFvf-9" value="" style="shape=partialRectangle;html=1;whiteSpace=wrap;connectable=0;overflow=hidden;fillColor=none;top=0;left=0;bottom=0;right=0;pointerEvents=1;" parent="2S_-wQ4N1EVncuiUFFvf-8" vertex="1">
          <mxGeometry width="260" height="529" as="geometry">
            <mxRectangle width="260" height="529" as="alternateBounds" />
          </mxGeometry>
        </mxCell>
        <mxCell id="2S_-wQ4N1EVncuiUFFvf-10" value="" style="shape=partialRectangle;html=1;whiteSpace=wrap;connectable=0;overflow=hidden;fillColor=none;top=0;left=0;bottom=0;right=0;pointerEvents=1;" parent="2S_-wQ4N1EVncuiUFFvf-8" vertex="1">
          <mxGeometry x="260" width="290" height="529" as="geometry">
            <mxRectangle width="290" height="529" as="alternateBounds" />
          </mxGeometry>
        </mxCell>
        <mxCell id="2S_-wQ4N1EVncuiUFFvf-11" value="" style="ellipse;html=1;shape=startState;fillColor=#000000;strokeColor=#ff0000;" parent="1" vertex="1">
          <mxGeometry x="280" y="-60" width="30" height="30" as="geometry" />
        </mxCell>
        <mxCell id="2S_-wQ4N1EVncuiUFFvf-12" value="" style="edgeStyle=orthogonalEdgeStyle;html=1;verticalAlign=bottom;endArrow=open;endSize=8;strokeColor=#ff0000;rounded=0;" parent="1" source="2S_-wQ4N1EVncuiUFFvf-11" edge="1">
          <mxGeometry relative="1" as="geometry">
            <mxPoint x="295" y="30" as="targetPoint" />
          </mxGeometry>
        </mxCell>
        <mxCell id="2S_-wQ4N1EVncuiUFFvf-13" value="Show Login Form" style="rounded=1;whiteSpace=wrap;html=1;arcSize=40;fontColor=#000000;fillColor=#ffffc0;strokeColor=#ff0000;" parent="1" vertex="1">
          <mxGeometry x="510" y="30" width="120" height="40" as="geometry" />
        </mxCell>
        <mxCell id="2S_-wQ4N1EVncuiUFFvf-15" value="Start" style="rounded=1;whiteSpace=wrap;html=1;arcSize=40;fontColor=#000000;fillColor=#ffffc0;strokeColor=#ff0000;" parent="1" vertex="1">
          <mxGeometry x="240" y="30" width="120" height="40" as="geometry" />
        </mxCell>
        <mxCell id="2S_-wQ4N1EVncuiUFFvf-16" value="" style="edgeStyle=orthogonalEdgeStyle;html=1;verticalAlign=bottom;endArrow=open;endSize=8;strokeColor=#ff0000;rounded=0;entryX=0;entryY=0.5;entryDx=0;entryDy=0;" parent="1" source="2S_-wQ4N1EVncuiUFFvf-15" target="2S_-wQ4N1EVncuiUFFvf-13" edge="1">
          <mxGeometry relative="1" as="geometry">
            <mxPoint x="300" y="130" as="targetPoint" />
          </mxGeometry>
        </mxCell>
        <mxCell id="DV5Ad2wCHTDXvm2oP9qI-3" value="Menampilkan Halaman admin" style="rounded=1;whiteSpace=wrap;html=1;arcSize=40;fontColor=#000000;fillColor=#ffffc0;strokeColor=#ff0000;" parent="1" vertex="1">
          <mxGeometry x="510" y="240" width="120" height="40" as="geometry" />
        </mxCell>
        <mxCell id="DV5Ad2wCHTDXvm2oP9qI-4" value="validasi username dan password" style="rhombus;whiteSpace=wrap;html=1;fillColor=#ffffc0;strokeColor=#ff0000;" parent="1" vertex="1">
          <mxGeometry x="490" y="90" width="160" height="90" as="geometry" />
        </mxCell>
        <mxCell id="DV5Ad2wCHTDXvm2oP9qI-5" value="no" style="edgeStyle=orthogonalEdgeStyle;html=1;align=left;verticalAlign=bottom;endArrow=open;endSize=8;strokeColor=#ff0000;rounded=0;entryX=1;entryY=0.5;entryDx=0;entryDy=0;" parent="1" source="DV5Ad2wCHTDXvm2oP9qI-4" target="2S_-wQ4N1EVncuiUFFvf-13" edge="1">
          <mxGeometry x="-1" relative="1" as="geometry">
            <mxPoint x="710" y="120" as="targetPoint" />
            <Array as="points">
              <mxPoint x="680" y="135" />
              <mxPoint x="680" y="50" />
            </Array>
          </mxGeometry>
        </mxCell>
        <mxCell id="DV5Ad2wCHTDXvm2oP9qI-6" value="yes" style="edgeStyle=orthogonalEdgeStyle;html=1;align=left;verticalAlign=top;endArrow=open;endSize=8;strokeColor=#ff0000;rounded=0;entryX=0.5;entryY=0;entryDx=0;entryDy=0;" parent="1" source="DV5Ad2wCHTDXvm2oP9qI-4" target="DV5Ad2wCHTDXvm2oP9qI-3" edge="1">
          <mxGeometry x="-1" relative="1" as="geometry">
            <mxPoint x="570" y="200" as="targetPoint" />
          </mxGeometry>
        </mxCell>
        <mxCell id="DV5Ad2wCHTDXvm2oP9qI-7" value="" style="ellipse;html=1;shape=endState;fillColor=#000000;strokeColor=#ff0000;" parent="1" vertex="1">
          <mxGeometry x="555" y="350" width="30" height="30" as="geometry" />
        </mxCell>
        <mxCell id="DV5Ad2wCHTDXvm2oP9qI-9" value="yes" style="edgeStyle=orthogonalEdgeStyle;html=1;align=left;verticalAlign=top;endArrow=open;endSize=8;strokeColor=#ff0000;rounded=0;entryX=0.5;entryY=0;entryDx=0;entryDy=0;" parent="1" target="DV5Ad2wCHTDXvm2oP9qI-7" edge="1">
          <mxGeometry x="-1" relative="1" as="geometry">
            <mxPoint x="569.78" y="340" as="targetPoint" />
            <mxPoint x="569.78" y="280" as="sourcePoint" />
          </mxGeometry>
        </mxCell>
        <mxCell id="DV5Ad2wCHTDXvm2oP9qI-10" value="User/Admin Login" style="html=1;" parent="1" vertex="1">
          <mxGeometry x="180" y="-190" width="550" height="50" as="geometry" />
        </mxCell>
        <mxCell id="DV5Ad2wCHTDXvm2oP9qI-11" value="Activity" style="rounded=1;whiteSpace=wrap;html=1;arcSize=40;fontColor=#000000;fillColor=#ffffc0;strokeColor=#ff0000;" parent="1" vertex="1">
          <mxGeometry x="1050" y="30" width="120" height="40" as="geometry" />
        </mxCell>
        <mxCell id="DV5Ad2wCHTDXvm2oP9qI-12" value="" style="shape=table;startSize=0;container=1;collapsible=0;childLayout=tableLayout;" parent="1" vertex="1">
          <mxGeometry x="860" y="-140" width="550" height="1219.9999999999998" as="geometry" />
        </mxCell>
        <mxCell id="DV5Ad2wCHTDXvm2oP9qI-13" value="" style="shape=tableRow;horizontal=0;startSize=0;swimlaneHead=0;swimlaneBody=0;top=0;left=0;bottom=0;right=0;collapsible=0;dropTarget=0;fillColor=none;points=[[0,0.5],[1,0.5]];portConstraint=eastwest;" parent="DV5Ad2wCHTDXvm2oP9qI-12" vertex="1">
          <mxGeometry width="550" height="60" as="geometry" />
        </mxCell>
        <mxCell id="DV5Ad2wCHTDXvm2oP9qI-14" value="User/Admin" style="shape=partialRectangle;html=1;whiteSpace=wrap;connectable=0;overflow=hidden;fillColor=none;top=0;left=0;bottom=0;right=0;pointerEvents=1;" parent="DV5Ad2wCHTDXvm2oP9qI-13" vertex="1">
          <mxGeometry width="280" height="60" as="geometry">
            <mxRectangle width="280" height="60" as="alternateBounds" />
          </mxGeometry>
        </mxCell>
        <mxCell id="DV5Ad2wCHTDXvm2oP9qI-15" value="System" style="shape=partialRectangle;html=1;whiteSpace=wrap;connectable=0;overflow=hidden;fillColor=none;top=0;left=0;bottom=0;right=0;pointerEvents=1;" parent="DV5Ad2wCHTDXvm2oP9qI-13" vertex="1">
          <mxGeometry x="280" width="270" height="60" as="geometry">
            <mxRectangle width="270" height="60" as="alternateBounds" />
          </mxGeometry>
        </mxCell>
        <mxCell id="DV5Ad2wCHTDXvm2oP9qI-16" value="" style="shape=tableRow;horizontal=0;startSize=0;swimlaneHead=0;swimlaneBody=0;top=0;left=0;bottom=0;right=0;collapsible=0;dropTarget=0;fillColor=none;points=[[0,0.5],[1,0.5]];portConstraint=eastwest;" parent="DV5Ad2wCHTDXvm2oP9qI-12" vertex="1">
          <mxGeometry y="60" width="550" height="1160" as="geometry" />
        </mxCell>
        <mxCell id="DV5Ad2wCHTDXvm2oP9qI-17" value="" style="shape=partialRectangle;html=1;whiteSpace=wrap;connectable=0;overflow=hidden;fillColor=none;top=0;left=0;bottom=0;right=0;pointerEvents=1;" parent="DV5Ad2wCHTDXvm2oP9qI-16" vertex="1">
          <mxGeometry width="280" height="1160" as="geometry">
            <mxRectangle width="280" height="1160" as="alternateBounds" />
          </mxGeometry>
        </mxCell>
        <mxCell id="DV5Ad2wCHTDXvm2oP9qI-18" value="" style="shape=partialRectangle;html=1;whiteSpace=wrap;connectable=0;overflow=hidden;fillColor=none;top=0;left=0;bottom=0;right=0;pointerEvents=1;" parent="DV5Ad2wCHTDXvm2oP9qI-16" vertex="1">
          <mxGeometry x="280" width="270" height="1160" as="geometry">
            <mxRectangle width="270" height="1160" as="alternateBounds" />
          </mxGeometry>
        </mxCell>
        <mxCell id="DV5Ad2wCHTDXvm2oP9qI-19" value="" style="ellipse;html=1;shape=startState;fillColor=#000000;strokeColor=#ff0000;" parent="1" vertex="1">
          <mxGeometry x="950" y="-50" width="30" height="30" as="geometry" />
        </mxCell>
        <mxCell id="DV5Ad2wCHTDXvm2oP9qI-20" value="" style="edgeStyle=orthogonalEdgeStyle;html=1;verticalAlign=bottom;endArrow=open;endSize=8;strokeColor=#ff0000;rounded=0;" parent="1" edge="1">
          <mxGeometry relative="1" as="geometry">
            <mxPoint x="965" y="29.999999999999773" as="targetPoint" />
            <mxPoint x="965" y="-20" as="sourcePoint" />
          </mxGeometry>
        </mxCell>
        <mxCell id="DV5Ad2wCHTDXvm2oP9qI-21" value="Show Product Page" style="rounded=1;whiteSpace=wrap;html=1;arcSize=40;fontColor=#000000;fillColor=#ffffc0;strokeColor=#ff0000;" parent="1" vertex="1">
          <mxGeometry x="1180" y="30" width="120" height="40" as="geometry" />
        </mxCell>
        <mxCell id="DV5Ad2wCHTDXvm2oP9qI-22" value="Login" style="rounded=1;whiteSpace=wrap;html=1;arcSize=40;fontColor=#000000;fillColor=#ffffc0;strokeColor=#ff0000;" parent="1" vertex="1">
          <mxGeometry x="910" y="30" width="120" height="40" as="geometry" />
        </mxCell>
        <mxCell id="DV5Ad2wCHTDXvm2oP9qI-23" value="" style="edgeStyle=orthogonalEdgeStyle;html=1;verticalAlign=bottom;endArrow=open;endSize=8;strokeColor=#ff0000;rounded=0;entryX=0;entryY=0.5;entryDx=0;entryDy=0;" parent="1" source="DV5Ad2wCHTDXvm2oP9qI-22" target="DV5Ad2wCHTDXvm2oP9qI-21" edge="1">
          <mxGeometry relative="1" as="geometry">
            <mxPoint x="970" y="130" as="targetPoint" />
          </mxGeometry>
        </mxCell>
        <mxCell id="DV5Ad2wCHTDXvm2oP9qI-24" value="Show Form Input Product" style="rounded=1;whiteSpace=wrap;html=1;arcSize=40;fontColor=#000000;fillColor=#ffffc0;strokeColor=#ff0000;" parent="1" vertex="1">
          <mxGeometry x="1180" y="190" width="120" height="40" as="geometry" />
        </mxCell>
        <mxCell id="DV5Ad2wCHTDXvm2oP9qI-30" value="Add Product" style="html=1;" parent="1" vertex="1">
          <mxGeometry x="860" y="-190" width="550" height="50" as="geometry" />
        </mxCell>
        <mxCell id="rZWRLtwXN4J-4R6t71DZ-5" value="Click Add Product" style="rounded=1;whiteSpace=wrap;html=1;arcSize=40;fontColor=#000000;fillColor=#ffffc0;strokeColor=#ff0000;" parent="1" vertex="1">
          <mxGeometry x="910" y="130" width="120" height="40" as="geometry" />
        </mxCell>
        <mxCell id="rZWRLtwXN4J-4R6t71DZ-8" value="" style="edgeStyle=orthogonalEdgeStyle;html=1;verticalAlign=bottom;endArrow=open;endSize=8;strokeColor=#ff0000;rounded=0;entryX=1;entryY=0.5;entryDx=0;entryDy=0;" parent="1" target="rZWRLtwXN4J-4R6t71DZ-5" edge="1">
          <mxGeometry relative="1" as="geometry">
            <mxPoint x="1239.69" y="129.99999999999977" as="targetPoint" />
            <mxPoint x="1239.69" y="70" as="sourcePoint" />
            <Array as="points">
              <mxPoint x="1240" y="150" />
            </Array>
          </mxGeometry>
        </mxCell>
        <mxCell id="rZWRLtwXN4J-4R6t71DZ-9" value="" style="edgeStyle=orthogonalEdgeStyle;html=1;verticalAlign=bottom;endArrow=open;endSize=8;strokeColor=#ff0000;rounded=0;entryX=0;entryY=0.5;entryDx=0;entryDy=0;" parent="1" target="DV5Ad2wCHTDXvm2oP9qI-24" edge="1">
          <mxGeometry relative="1" as="geometry">
            <mxPoint x="964.09" y="219.99999999999955" as="targetPoint" />
            <mxPoint x="964.09" y="170" as="sourcePoint" />
            <Array as="points">
              <mxPoint x="970" y="170" />
              <mxPoint x="970" y="210" />
              <mxPoint x="1180" y="210" />
            </Array>
          </mxGeometry>
        </mxCell>
        <mxCell id="rZWRLtwXN4J-4R6t71DZ-10" value="" style="edgeStyle=orthogonalEdgeStyle;html=1;verticalAlign=bottom;endArrow=open;endSize=8;strokeColor=#ff0000;rounded=0;exitX=0.5;exitY=1;exitDx=0;exitDy=0;" parent="1" source="DV5Ad2wCHTDXvm2oP9qI-24" target="rZWRLtwXN4J-4R6t71DZ-11" edge="1">
          <mxGeometry relative="1" as="geometry">
            <mxPoint x="1050" y="330" as="targetPoint" />
            <mxPoint x="1239.69" y="250" as="sourcePoint" />
            <Array as="points">
              <mxPoint x="1240" y="280" />
            </Array>
          </mxGeometry>
        </mxCell>
        <mxCell id="rZWRLtwXN4J-4R6t71DZ-11" value="Add Product Name&lt;span style=&quot;color: rgba(0, 0, 0, 0); font-family: monospace; font-size: 0px; text-align: start;&quot;&gt;%3CmxGraphModel%3E%3Croot%3E%3CmxCell%20id%3D%220%22%2F%3E%3CmxCell%20id%3D%221%22%20parent%3D%220%22%2F%3E%3CmxCell%20id%3D%222%22%20value%3D%22Klik%20Add%20Product%22%20style%3D%22rounded%3D1%3BwhiteSpace%3Dwrap%3Bhtml%3D1%3BarcSize%3D40%3BfontColor%3D%23000000%3BfillColor%3D%23ffffc0%3BstrokeColor%3D%23ff0000%3B%22%20vertex%3D%221%22%20parent%3D%221%22%3E%3CmxGeometry%20x%3D%22910%22%20y%3D%22130%22%20width%3D%22120%22%20height%3D%2240%22%20as%3D%22geometry%22%2F%3E%3C%2FmxCell%3E%3C%2Froot%3E%3C%2FmxGraphModel%3E&lt;/span&gt;&lt;span style=&quot;color: rgba(0, 0, 0, 0); font-family: monospace; font-size: 0px; text-align: start;&quot;&gt;%3CmxGraphModel%3E%3Croot%3E%3CmxCell%20id%3D%220%22%2F%3E%3CmxCell%20id%3D%221%22%20parent%3D%220%22%2F%3E%3CmxCell%20id%3D%222%22%20value%3D%22Klik%20Add%20Product%22%20style%3D%22rounded%3D1%3BwhiteSpace%3Dwrap%3Bhtml%3D1%3BarcSize%3D40%3BfontColor%3D%23000000%3BfillColor%3D%23ffffc0%3BstrokeColor%3D%23ff0000%3B%22%20vertex%3D%221%22%20parent%3D%221%22%3E%3CmxGeometry%20x%3D%22910%22%20y%3D%22130%22%20width%3D%22120%22%20height%3D%2240%22%20as%3D%22geometry%22%2F%3E%3C%2FmxCell%3E%3C%2Froot%3E%3C%2FmxGraphModel%3E&lt;/span&gt;" style="rounded=1;whiteSpace=wrap;html=1;arcSize=40;fontColor=#000000;fillColor=#ffffc0;strokeColor=#ff0000;" parent="1" vertex="1">
          <mxGeometry x="920" y="250" width="120" height="40" as="geometry" />
        </mxCell>
        <mxCell id="rZWRLtwXN4J-4R6t71DZ-12" value="Select Category Product" style="rounded=1;whiteSpace=wrap;html=1;arcSize=40;fontColor=#000000;fillColor=#ffffc0;strokeColor=#ff0000;" parent="1" vertex="1">
          <mxGeometry x="920" y="340" width="120" height="40" as="geometry" />
        </mxCell>
        <mxCell id="rZWRLtwXN4J-4R6t71DZ-13" value="Add Description Product" style="rounded=1;whiteSpace=wrap;html=1;arcSize=40;fontColor=#000000;fillColor=#ffffc0;strokeColor=#ff0000;" parent="1" vertex="1">
          <mxGeometry x="920" y="430" width="120" height="40" as="geometry" />
        </mxCell>
        <mxCell id="rZWRLtwXN4J-4R6t71DZ-14" value="Add Price Product" style="rounded=1;whiteSpace=wrap;html=1;arcSize=40;fontColor=#000000;fillColor=#ffffc0;strokeColor=#ff0000;" parent="1" vertex="1">
          <mxGeometry x="920" y="520" width="120" height="40" as="geometry" />
        </mxCell>
        <mxCell id="rZWRLtwXN4J-4R6t71DZ-15" value="Select Image Product" style="rounded=1;whiteSpace=wrap;html=1;arcSize=40;fontColor=#000000;fillColor=#ffffc0;strokeColor=#ff0000;" parent="1" vertex="1">
          <mxGeometry x="920" y="610" width="120" height="40" as="geometry" />
        </mxCell>
        <mxCell id="rZWRLtwXN4J-4R6t71DZ-16" value="" style="edgeStyle=orthogonalEdgeStyle;html=1;verticalAlign=bottom;endArrow=open;endSize=8;strokeColor=#ff0000;rounded=0;" parent="1" edge="1">
          <mxGeometry relative="1" as="geometry">
            <mxPoint x="979.4100000000001" y="339.9999999999998" as="targetPoint" />
            <mxPoint x="979.4100000000001" y="290" as="sourcePoint" />
          </mxGeometry>
        </mxCell>
        <mxCell id="rZWRLtwXN4J-4R6t71DZ-17" value="" style="edgeStyle=orthogonalEdgeStyle;html=1;verticalAlign=bottom;endArrow=open;endSize=8;strokeColor=#ff0000;rounded=0;" parent="1" edge="1">
          <mxGeometry relative="1" as="geometry">
            <mxPoint x="979.47" y="429.9999999999998" as="targetPoint" />
            <mxPoint x="979.47" y="380" as="sourcePoint" />
            <Array as="points">
              <mxPoint x="979.76" y="390" />
              <mxPoint x="979.76" y="390" />
            </Array>
          </mxGeometry>
        </mxCell>
        <mxCell id="rZWRLtwXN4J-4R6t71DZ-18" value="" style="edgeStyle=orthogonalEdgeStyle;html=1;verticalAlign=bottom;endArrow=open;endSize=8;strokeColor=#ff0000;rounded=0;" parent="1" edge="1">
          <mxGeometry relative="1" as="geometry">
            <mxPoint x="979.4100000000001" y="519.9999999999995" as="targetPoint" />
            <mxPoint x="979.4100000000001" y="470" as="sourcePoint" />
          </mxGeometry>
        </mxCell>
        <mxCell id="rZWRLtwXN4J-4R6t71DZ-20" value="" style="edgeStyle=orthogonalEdgeStyle;html=1;verticalAlign=bottom;endArrow=open;endSize=8;strokeColor=#ff0000;rounded=0;" parent="1" edge="1">
          <mxGeometry relative="1" as="geometry">
            <mxPoint x="979.4100000000001" y="609.9999999999995" as="targetPoint" />
            <mxPoint x="979.4100000000001" y="560" as="sourcePoint" />
          </mxGeometry>
        </mxCell>
        <mxCell id="rZWRLtwXN4J-4R6t71DZ-21" value="Click Save Product" style="rounded=1;whiteSpace=wrap;html=1;arcSize=40;fontColor=#000000;fillColor=#ffffc0;strokeColor=#ff0000;" parent="1" vertex="1">
          <mxGeometry x="920" y="690" width="120" height="40" as="geometry" />
        </mxCell>
        <mxCell id="rZWRLtwXN4J-4R6t71DZ-22" value="" style="edgeStyle=orthogonalEdgeStyle;html=1;verticalAlign=bottom;endArrow=open;endSize=8;strokeColor=#ff0000;rounded=0;" parent="1" edge="1">
          <mxGeometry relative="1" as="geometry">
            <mxPoint x="979.41" y="689.9999999999995" as="targetPoint" />
            <mxPoint x="979.41" y="650" as="sourcePoint" />
          </mxGeometry>
        </mxCell>
        <mxCell id="rZWRLtwXN4J-4R6t71DZ-23" value="" style="edgeStyle=orthogonalEdgeStyle;html=1;verticalAlign=bottom;endArrow=open;endSize=8;strokeColor=#ff0000;rounded=0;entryX=0;entryY=0.5;entryDx=0;entryDy=0;" parent="1" edge="1">
          <mxGeometry relative="1" as="geometry">
            <mxPoint x="1190" y="709.4100000000001" as="targetPoint" />
            <mxPoint x="1040" y="709.4100000000001" as="sourcePoint" />
          </mxGeometry>
        </mxCell>
        <mxCell id="rZWRLtwXN4J-4R6t71DZ-25" value="Validation Data" style="rhombus;whiteSpace=wrap;html=1;fillColor=#ffffc0;strokeColor=#ff0000;" parent="1" vertex="1">
          <mxGeometry x="1190" y="680" width="100" height="60" as="geometry" />
        </mxCell>
        <mxCell id="rZWRLtwXN4J-4R6t71DZ-28" value="yes" style="edgeStyle=orthogonalEdgeStyle;html=1;align=left;verticalAlign=top;endArrow=open;endSize=8;strokeColor=#ff0000;rounded=0;entryX=0.5;entryY=0;entryDx=0;entryDy=0;" parent="1" edge="1">
          <mxGeometry x="-1" relative="1" as="geometry">
            <mxPoint x="1239.17" y="800" as="targetPoint" />
            <mxPoint x="1239.17" y="740" as="sourcePoint" />
          </mxGeometry>
        </mxCell>
        <mxCell id="rZWRLtwXN4J-4R6t71DZ-29" value="no" style="edgeStyle=orthogonalEdgeStyle;html=1;align=left;verticalAlign=bottom;endArrow=open;endSize=8;strokeColor=#ff0000;rounded=0;exitX=1;exitY=0.5;exitDx=0;exitDy=0;" parent="1" source="rZWRLtwXN4J-4R6t71DZ-25" target="DV5Ad2wCHTDXvm2oP9qI-24" edge="1">
          <mxGeometry x="-1" relative="1" as="geometry">
            <mxPoint x="1215" y="595" as="targetPoint" />
            <Array as="points">
              <mxPoint x="1390" y="710" />
              <mxPoint x="1390" y="210" />
            </Array>
            <mxPoint x="1235" y="680" as="sourcePoint" />
          </mxGeometry>
        </mxCell>
        <mxCell id="rZWRLtwXN4J-4R6t71DZ-30" value="Save Process" style="rounded=1;whiteSpace=wrap;html=1;arcSize=40;fontColor=#000000;fillColor=#ffffc0;strokeColor=#ff0000;" parent="1" vertex="1">
          <mxGeometry x="1180" y="800" width="120" height="40" as="geometry" />
        </mxCell>
        <mxCell id="rZWRLtwXN4J-4R6t71DZ-31" value="Product Saved" style="rounded=1;whiteSpace=wrap;html=1;arcSize=40;fontColor=#000000;fillColor=#ffffc0;strokeColor=#ff0000;" parent="1" vertex="1">
          <mxGeometry x="1180" y="880" width="120" height="40" as="geometry" />
        </mxCell>
        <mxCell id="rZWRLtwXN4J-4R6t71DZ-32" value="" style="edgeStyle=orthogonalEdgeStyle;html=1;verticalAlign=bottom;endArrow=open;endSize=8;strokeColor=#ff0000;rounded=0;" parent="1" edge="1">
          <mxGeometry relative="1" as="geometry">
            <mxPoint x="1239.4699999999998" y="879.9999999999995" as="targetPoint" />
            <mxPoint x="1239.4699999999998" y="840" as="sourcePoint" />
          </mxGeometry>
        </mxCell>
        <mxCell id="rZWRLtwXN4J-4R6t71DZ-33" value="Back to main page" style="rounded=1;whiteSpace=wrap;html=1;arcSize=40;fontColor=#000000;fillColor=#ffffc0;strokeColor=#ff0000;" parent="1" vertex="1">
          <mxGeometry x="1180" y="960" width="120" height="40" as="geometry" />
        </mxCell>
        <mxCell id="rZWRLtwXN4J-4R6t71DZ-34" value="" style="edgeStyle=orthogonalEdgeStyle;html=1;verticalAlign=bottom;endArrow=open;endSize=8;strokeColor=#ff0000;rounded=0;" parent="1" edge="1">
          <mxGeometry relative="1" as="geometry">
            <mxPoint x="1239.4699999999998" y="959.9999999999995" as="targetPoint" />
            <mxPoint x="1239.4699999999998" y="920" as="sourcePoint" />
          </mxGeometry>
        </mxCell>
        <mxCell id="rZWRLtwXN4J-4R6t71DZ-43" value="" style="ellipse;html=1;shape=endState;fillColor=#000000;strokeColor=#ff0000;" parent="1" vertex="1">
          <mxGeometry x="1225" y="1040" width="30" height="30" as="geometry" />
        </mxCell>
        <mxCell id="rZWRLtwXN4J-4R6t71DZ-44" value="" style="edgeStyle=orthogonalEdgeStyle;html=1;verticalAlign=bottom;endArrow=open;endSize=8;strokeColor=#ff0000;rounded=0;" parent="1" edge="1">
          <mxGeometry relative="1" as="geometry">
            <mxPoint x="1239.4699999999998" y="1039.9999999999995" as="targetPoint" />
            <mxPoint x="1239.4699999999998" y="1000" as="sourcePoint" />
          </mxGeometry>
        </mxCell>
        <mxCell id="rZWRLtwXN4J-4R6t71DZ-45" value="Activity" style="rounded=1;whiteSpace=wrap;html=1;arcSize=40;fontColor=#000000;fillColor=#ffffc0;strokeColor=#ff0000;" parent="1" vertex="1">
          <mxGeometry x="370" y="790" width="120" height="40" as="geometry" />
        </mxCell>
        <mxCell id="rZWRLtwXN4J-4R6t71DZ-46" value="" style="shape=table;startSize=0;container=1;collapsible=0;childLayout=tableLayout;" parent="1" vertex="1">
          <mxGeometry x="170" y="610" width="550" height="940" as="geometry" />
        </mxCell>
        <mxCell id="rZWRLtwXN4J-4R6t71DZ-47" value="" style="shape=tableRow;horizontal=0;startSize=0;swimlaneHead=0;swimlaneBody=0;top=0;left=0;bottom=0;right=0;collapsible=0;dropTarget=0;fillColor=none;points=[[0,0.5],[1,0.5]];portConstraint=eastwest;" parent="rZWRLtwXN4J-4R6t71DZ-46" vertex="1">
          <mxGeometry width="550" height="63" as="geometry" />
        </mxCell>
        <mxCell id="rZWRLtwXN4J-4R6t71DZ-48" value="User/Admin" style="shape=partialRectangle;html=1;whiteSpace=wrap;connectable=0;overflow=hidden;fillColor=none;top=0;left=0;bottom=0;right=0;pointerEvents=1;" parent="rZWRLtwXN4J-4R6t71DZ-47" vertex="1">
          <mxGeometry width="280" height="63" as="geometry">
            <mxRectangle width="280" height="63" as="alternateBounds" />
          </mxGeometry>
        </mxCell>
        <mxCell id="rZWRLtwXN4J-4R6t71DZ-49" value="System" style="shape=partialRectangle;html=1;whiteSpace=wrap;connectable=0;overflow=hidden;fillColor=none;top=0;left=0;bottom=0;right=0;pointerEvents=1;" parent="rZWRLtwXN4J-4R6t71DZ-47" vertex="1">
          <mxGeometry x="280" width="270" height="63" as="geometry">
            <mxRectangle width="270" height="63" as="alternateBounds" />
          </mxGeometry>
        </mxCell>
        <mxCell id="rZWRLtwXN4J-4R6t71DZ-50" value="" style="shape=tableRow;horizontal=0;startSize=0;swimlaneHead=0;swimlaneBody=0;top=0;left=0;bottom=0;right=0;collapsible=0;dropTarget=0;fillColor=none;points=[[0,0.5],[1,0.5]];portConstraint=eastwest;" parent="rZWRLtwXN4J-4R6t71DZ-46" vertex="1">
          <mxGeometry y="63" width="550" height="877" as="geometry" />
        </mxCell>
        <mxCell id="rZWRLtwXN4J-4R6t71DZ-51" value="" style="shape=partialRectangle;html=1;whiteSpace=wrap;connectable=0;overflow=hidden;fillColor=none;top=0;left=0;bottom=0;right=0;pointerEvents=1;" parent="rZWRLtwXN4J-4R6t71DZ-50" vertex="1">
          <mxGeometry width="280" height="877" as="geometry">
            <mxRectangle width="280" height="877" as="alternateBounds" />
          </mxGeometry>
        </mxCell>
        <mxCell id="rZWRLtwXN4J-4R6t71DZ-52" value="" style="shape=partialRectangle;html=1;whiteSpace=wrap;connectable=0;overflow=hidden;fillColor=none;top=0;left=0;bottom=0;right=0;pointerEvents=1;" parent="rZWRLtwXN4J-4R6t71DZ-50" vertex="1">
          <mxGeometry x="280" width="270" height="877" as="geometry">
            <mxRectangle width="270" height="877" as="alternateBounds" />
          </mxGeometry>
        </mxCell>
        <mxCell id="rZWRLtwXN4J-4R6t71DZ-53" value="" style="ellipse;html=1;shape=startState;fillColor=#000000;strokeColor=#ff0000;" parent="1" vertex="1">
          <mxGeometry x="270" y="710" width="30" height="30" as="geometry" />
        </mxCell>
        <mxCell id="rZWRLtwXN4J-4R6t71DZ-54" value="" style="edgeStyle=orthogonalEdgeStyle;html=1;verticalAlign=bottom;endArrow=open;endSize=8;strokeColor=#ff0000;rounded=0;" parent="1" edge="1">
          <mxGeometry relative="1" as="geometry">
            <mxPoint x="285" y="789.9999999999998" as="targetPoint" />
            <mxPoint x="285" y="740" as="sourcePoint" />
          </mxGeometry>
        </mxCell>
        <mxCell id="rZWRLtwXN4J-4R6t71DZ-55" value="Show Product Page" style="rounded=1;whiteSpace=wrap;html=1;arcSize=40;fontColor=#000000;fillColor=#ffffc0;strokeColor=#ff0000;" parent="1" vertex="1">
          <mxGeometry x="500" y="790" width="120" height="40" as="geometry" />
        </mxCell>
        <mxCell id="rZWRLtwXN4J-4R6t71DZ-56" value="Login" style="rounded=1;whiteSpace=wrap;html=1;arcSize=40;fontColor=#000000;fillColor=#ffffc0;strokeColor=#ff0000;" parent="1" vertex="1">
          <mxGeometry x="230" y="790" width="120" height="40" as="geometry" />
        </mxCell>
        <mxCell id="rZWRLtwXN4J-4R6t71DZ-57" value="" style="edgeStyle=orthogonalEdgeStyle;html=1;verticalAlign=bottom;endArrow=open;endSize=8;strokeColor=#ff0000;rounded=0;entryX=0;entryY=0.5;entryDx=0;entryDy=0;" parent="1" source="rZWRLtwXN4J-4R6t71DZ-56" target="rZWRLtwXN4J-4R6t71DZ-55" edge="1">
          <mxGeometry relative="1" as="geometry">
            <mxPoint x="290" y="890" as="targetPoint" />
          </mxGeometry>
        </mxCell>
        <mxCell id="rZWRLtwXN4J-4R6t71DZ-58" value="Show Form Edit Product" style="rounded=1;whiteSpace=wrap;html=1;arcSize=40;fontColor=#000000;fillColor=#ffffc0;strokeColor=#ff0000;" parent="1" vertex="1">
          <mxGeometry x="500" y="950" width="120" height="40" as="geometry" />
        </mxCell>
        <mxCell id="rZWRLtwXN4J-4R6t71DZ-59" value="Edit Product" style="html=1;" parent="1" vertex="1">
          <mxGeometry x="171" y="560" width="550" height="50" as="geometry" />
        </mxCell>
        <mxCell id="rZWRLtwXN4J-4R6t71DZ-60" value="Click Action Edit" style="rounded=1;whiteSpace=wrap;html=1;arcSize=40;fontColor=#000000;fillColor=#ffffc0;strokeColor=#ff0000;" parent="1" vertex="1">
          <mxGeometry x="230" y="890" width="120" height="40" as="geometry" />
        </mxCell>
        <mxCell id="rZWRLtwXN4J-4R6t71DZ-61" value="" style="edgeStyle=orthogonalEdgeStyle;html=1;verticalAlign=bottom;endArrow=open;endSize=8;strokeColor=#ff0000;rounded=0;entryX=1;entryY=0.5;entryDx=0;entryDy=0;" parent="1" target="rZWRLtwXN4J-4R6t71DZ-60" edge="1">
          <mxGeometry relative="1" as="geometry">
            <mxPoint x="559.69" y="889.9999999999998" as="targetPoint" />
            <mxPoint x="559.69" y="830" as="sourcePoint" />
            <Array as="points">
              <mxPoint x="560" y="910" />
            </Array>
          </mxGeometry>
        </mxCell>
        <mxCell id="rZWRLtwXN4J-4R6t71DZ-62" value="" style="edgeStyle=orthogonalEdgeStyle;html=1;verticalAlign=bottom;endArrow=open;endSize=8;strokeColor=#ff0000;rounded=0;entryX=0;entryY=0.5;entryDx=0;entryDy=0;" parent="1" target="rZWRLtwXN4J-4R6t71DZ-58" edge="1">
          <mxGeometry relative="1" as="geometry">
            <mxPoint x="284.09000000000003" y="979.9999999999995" as="targetPoint" />
            <mxPoint x="284.09000000000015" y="930" as="sourcePoint" />
            <Array as="points">
              <mxPoint x="290" y="930" />
              <mxPoint x="290" y="970" />
              <mxPoint x="500" y="970" />
            </Array>
          </mxGeometry>
        </mxCell>
        <mxCell id="rZWRLtwXN4J-4R6t71DZ-63" value="" style="edgeStyle=orthogonalEdgeStyle;html=1;verticalAlign=bottom;endArrow=open;endSize=8;strokeColor=#ff0000;rounded=0;exitX=0.5;exitY=1;exitDx=0;exitDy=0;" parent="1" source="rZWRLtwXN4J-4R6t71DZ-58" target="rZWRLtwXN4J-4R6t71DZ-64" edge="1">
          <mxGeometry relative="1" as="geometry">
            <mxPoint x="370" y="1090" as="targetPoint" />
            <mxPoint x="559.69" y="1010" as="sourcePoint" />
            <Array as="points">
              <mxPoint x="560" y="1040" />
            </Array>
          </mxGeometry>
        </mxCell>
        <mxCell id="rZWRLtwXN4J-4R6t71DZ-64" value="Select Edit Data" style="rounded=1;whiteSpace=wrap;html=1;arcSize=40;fontColor=#000000;fillColor=#ffffc0;strokeColor=#ff0000;" parent="1" vertex="1">
          <mxGeometry x="240" y="1010" width="120" height="40" as="geometry" />
        </mxCell>
        <mxCell id="rZWRLtwXN4J-4R6t71DZ-69" value="" style="edgeStyle=orthogonalEdgeStyle;html=1;verticalAlign=bottom;endArrow=open;endSize=8;strokeColor=#ff0000;rounded=0;" parent="1" edge="1">
          <mxGeometry relative="1" as="geometry">
            <mxPoint x="299.40999999999985" y="1099.9999999999998" as="targetPoint" />
            <mxPoint x="299.40999999999985" y="1050" as="sourcePoint" />
          </mxGeometry>
        </mxCell>
        <mxCell id="rZWRLtwXN4J-4R6t71DZ-73" value="Click Save Product" style="rounded=1;whiteSpace=wrap;html=1;arcSize=40;fontColor=#000000;fillColor=#ffffc0;strokeColor=#ff0000;" parent="1" vertex="1">
          <mxGeometry x="240" y="1100" width="120" height="40" as="geometry" />
        </mxCell>
        <mxCell id="rZWRLtwXN4J-4R6t71DZ-75" value="" style="edgeStyle=orthogonalEdgeStyle;html=1;verticalAlign=bottom;endArrow=open;endSize=8;strokeColor=#ff0000;rounded=0;entryX=0;entryY=0.5;entryDx=0;entryDy=0;" parent="1" edge="1">
          <mxGeometry relative="1" as="geometry">
            <mxPoint x="510" y="1119.4999999999998" as="targetPoint" />
            <mxPoint x="360" y="1119.4999999999998" as="sourcePoint" />
          </mxGeometry>
        </mxCell>
        <mxCell id="rZWRLtwXN4J-4R6t71DZ-76" value="Validation Data" style="rhombus;whiteSpace=wrap;html=1;fillColor=#ffffc0;strokeColor=#ff0000;" parent="1" vertex="1">
          <mxGeometry x="510" y="1090" width="100" height="60" as="geometry" />
        </mxCell>
        <mxCell id="rZWRLtwXN4J-4R6t71DZ-77" value="yes" style="edgeStyle=orthogonalEdgeStyle;html=1;align=left;verticalAlign=top;endArrow=open;endSize=8;strokeColor=#ff0000;rounded=0;entryX=0.5;entryY=0;entryDx=0;entryDy=0;" parent="1" edge="1">
          <mxGeometry x="-1" relative="1" as="geometry">
            <mxPoint x="559.5000000000001" y="1210" as="targetPoint" />
            <mxPoint x="559.5000000000001" y="1150" as="sourcePoint" />
          </mxGeometry>
        </mxCell>
        <mxCell id="rZWRLtwXN4J-4R6t71DZ-78" value="no" style="edgeStyle=orthogonalEdgeStyle;html=1;align=left;verticalAlign=bottom;endArrow=open;endSize=8;strokeColor=#ff0000;rounded=0;exitX=1;exitY=0.5;exitDx=0;exitDy=0;" parent="1" source="rZWRLtwXN4J-4R6t71DZ-76" target="rZWRLtwXN4J-4R6t71DZ-58" edge="1">
          <mxGeometry x="-1" relative="1" as="geometry">
            <mxPoint x="535" y="1355" as="targetPoint" />
            <Array as="points">
              <mxPoint x="710" y="1120" />
              <mxPoint x="710" y="970" />
            </Array>
            <mxPoint x="555" y="1440" as="sourcePoint" />
          </mxGeometry>
        </mxCell>
        <mxCell id="rZWRLtwXN4J-4R6t71DZ-79" value="Edit Process" style="rounded=1;whiteSpace=wrap;html=1;arcSize=40;fontColor=#000000;fillColor=#ffffc0;strokeColor=#ff0000;" parent="1" vertex="1">
          <mxGeometry x="500" y="1210" width="120" height="40" as="geometry" />
        </mxCell>
        <mxCell id="rZWRLtwXN4J-4R6t71DZ-80" value="Edit Saved" style="rounded=1;whiteSpace=wrap;html=1;arcSize=40;fontColor=#000000;fillColor=#ffffc0;strokeColor=#ff0000;" parent="1" vertex="1">
          <mxGeometry x="500" y="1290" width="120" height="40" as="geometry" />
        </mxCell>
        <mxCell id="rZWRLtwXN4J-4R6t71DZ-81" value="" style="edgeStyle=orthogonalEdgeStyle;html=1;verticalAlign=bottom;endArrow=open;endSize=8;strokeColor=#ff0000;rounded=0;" parent="1" edge="1">
          <mxGeometry relative="1" as="geometry">
            <mxPoint x="559.4999999999998" y="1289.9999999999995" as="targetPoint" />
            <mxPoint x="559.4999999999998" y="1250" as="sourcePoint" />
          </mxGeometry>
        </mxCell>
        <mxCell id="rZWRLtwXN4J-4R6t71DZ-82" value="Back to main page" style="rounded=1;whiteSpace=wrap;html=1;arcSize=40;fontColor=#000000;fillColor=#ffffc0;strokeColor=#ff0000;" parent="1" vertex="1">
          <mxGeometry x="500" y="1370" width="120" height="40" as="geometry" />
        </mxCell>
        <mxCell id="rZWRLtwXN4J-4R6t71DZ-83" value="" style="edgeStyle=orthogonalEdgeStyle;html=1;verticalAlign=bottom;endArrow=open;endSize=8;strokeColor=#ff0000;rounded=0;" parent="1" edge="1">
          <mxGeometry relative="1" as="geometry">
            <mxPoint x="559.4999999999998" y="1369.9999999999995" as="targetPoint" />
            <mxPoint x="559.4999999999998" y="1330" as="sourcePoint" />
          </mxGeometry>
        </mxCell>
        <mxCell id="rZWRLtwXN4J-4R6t71DZ-84" value="" style="ellipse;html=1;shape=endState;fillColor=#000000;strokeColor=#ff0000;" parent="1" vertex="1">
          <mxGeometry x="545" y="1450" width="30" height="30" as="geometry" />
        </mxCell>
        <mxCell id="rZWRLtwXN4J-4R6t71DZ-85" value="" style="edgeStyle=orthogonalEdgeStyle;html=1;verticalAlign=bottom;endArrow=open;endSize=8;strokeColor=#ff0000;rounded=0;" parent="1" edge="1">
          <mxGeometry relative="1" as="geometry">
            <mxPoint x="559.4999999999998" y="1449.9999999999995" as="targetPoint" />
            <mxPoint x="559.4999999999998" y="1410" as="sourcePoint" />
          </mxGeometry>
        </mxCell>
        <mxCell id="rZWRLtwXN4J-4R6t71DZ-89" value="Activity" style="rounded=1;whiteSpace=wrap;html=1;arcSize=40;fontColor=#000000;fillColor=#ffffc0;strokeColor=#ff0000;" parent="1" vertex="1">
          <mxGeometry x="1040" y="1380" width="120" height="40" as="geometry" />
        </mxCell>
        <mxCell id="rZWRLtwXN4J-4R6t71DZ-90" value="" style="shape=table;startSize=0;container=1;collapsible=0;childLayout=tableLayout;" parent="1" vertex="1">
          <mxGeometry x="850" y="1210" width="550" height="719.9999999999998" as="geometry" />
        </mxCell>
        <mxCell id="rZWRLtwXN4J-4R6t71DZ-91" value="" style="shape=tableRow;horizontal=0;startSize=0;swimlaneHead=0;swimlaneBody=0;top=0;left=0;bottom=0;right=0;collapsible=0;dropTarget=0;fillColor=none;points=[[0,0.5],[1,0.5]];portConstraint=eastwest;" parent="rZWRLtwXN4J-4R6t71DZ-90" vertex="1">
          <mxGeometry width="550" height="60" as="geometry" />
        </mxCell>
        <mxCell id="rZWRLtwXN4J-4R6t71DZ-92" value="User/Admin" style="shape=partialRectangle;html=1;whiteSpace=wrap;connectable=0;overflow=hidden;fillColor=none;top=0;left=0;bottom=0;right=0;pointerEvents=1;" parent="rZWRLtwXN4J-4R6t71DZ-91" vertex="1">
          <mxGeometry width="280" height="60" as="geometry">
            <mxRectangle width="280" height="60" as="alternateBounds" />
          </mxGeometry>
        </mxCell>
        <mxCell id="rZWRLtwXN4J-4R6t71DZ-93" value="System" style="shape=partialRectangle;html=1;whiteSpace=wrap;connectable=0;overflow=hidden;fillColor=none;top=0;left=0;bottom=0;right=0;pointerEvents=1;" parent="rZWRLtwXN4J-4R6t71DZ-91" vertex="1">
          <mxGeometry x="280" width="270" height="60" as="geometry">
            <mxRectangle width="270" height="60" as="alternateBounds" />
          </mxGeometry>
        </mxCell>
        <mxCell id="rZWRLtwXN4J-4R6t71DZ-94" value="" style="shape=tableRow;horizontal=0;startSize=0;swimlaneHead=0;swimlaneBody=0;top=0;left=0;bottom=0;right=0;collapsible=0;dropTarget=0;fillColor=none;points=[[0,0.5],[1,0.5]];portConstraint=eastwest;" parent="rZWRLtwXN4J-4R6t71DZ-90" vertex="1">
          <mxGeometry y="60" width="550" height="660" as="geometry" />
        </mxCell>
        <mxCell id="rZWRLtwXN4J-4R6t71DZ-95" value="" style="shape=partialRectangle;html=1;whiteSpace=wrap;connectable=0;overflow=hidden;fillColor=none;top=0;left=0;bottom=0;right=0;pointerEvents=1;" parent="rZWRLtwXN4J-4R6t71DZ-94" vertex="1">
          <mxGeometry width="280" height="660" as="geometry">
            <mxRectangle width="280" height="660" as="alternateBounds" />
          </mxGeometry>
        </mxCell>
        <mxCell id="rZWRLtwXN4J-4R6t71DZ-96" value="" style="shape=partialRectangle;html=1;whiteSpace=wrap;connectable=0;overflow=hidden;fillColor=none;top=0;left=0;bottom=0;right=0;pointerEvents=1;" parent="rZWRLtwXN4J-4R6t71DZ-94" vertex="1">
          <mxGeometry x="280" width="270" height="660" as="geometry">
            <mxRectangle width="270" height="660" as="alternateBounds" />
          </mxGeometry>
        </mxCell>
        <mxCell id="rZWRLtwXN4J-4R6t71DZ-97" value="" style="ellipse;html=1;shape=startState;fillColor=#000000;strokeColor=#ff0000;" parent="1" vertex="1">
          <mxGeometry x="940" y="1300" width="30" height="30" as="geometry" />
        </mxCell>
        <mxCell id="rZWRLtwXN4J-4R6t71DZ-98" value="" style="edgeStyle=orthogonalEdgeStyle;html=1;verticalAlign=bottom;endArrow=open;endSize=8;strokeColor=#ff0000;rounded=0;" parent="1" edge="1">
          <mxGeometry relative="1" as="geometry">
            <mxPoint x="955" y="1380" as="targetPoint" />
            <mxPoint x="955" y="1330" as="sourcePoint" />
          </mxGeometry>
        </mxCell>
        <mxCell id="rZWRLtwXN4J-4R6t71DZ-99" value="Show Product Page" style="rounded=1;whiteSpace=wrap;html=1;arcSize=40;fontColor=#000000;fillColor=#ffffc0;strokeColor=#ff0000;" parent="1" vertex="1">
          <mxGeometry x="1170" y="1380" width="120" height="40" as="geometry" />
        </mxCell>
        <mxCell id="rZWRLtwXN4J-4R6t71DZ-100" value="Login" style="rounded=1;whiteSpace=wrap;html=1;arcSize=40;fontColor=#000000;fillColor=#ffffc0;strokeColor=#ff0000;" parent="1" vertex="1">
          <mxGeometry x="900" y="1380" width="120" height="40" as="geometry" />
        </mxCell>
        <mxCell id="rZWRLtwXN4J-4R6t71DZ-101" value="" style="edgeStyle=orthogonalEdgeStyle;html=1;verticalAlign=bottom;endArrow=open;endSize=8;strokeColor=#ff0000;rounded=0;entryX=0;entryY=0.5;entryDx=0;entryDy=0;" parent="1" source="rZWRLtwXN4J-4R6t71DZ-100" target="rZWRLtwXN4J-4R6t71DZ-99" edge="1">
          <mxGeometry relative="1" as="geometry">
            <mxPoint x="960" y="1480" as="targetPoint" />
          </mxGeometry>
        </mxCell>
        <mxCell id="rZWRLtwXN4J-4R6t71DZ-103" value="Edit Product" style="html=1;" parent="1" vertex="1">
          <mxGeometry x="850" y="1160" width="550" height="50" as="geometry" />
        </mxCell>
        <mxCell id="rZWRLtwXN4J-4R6t71DZ-104" value="Click Action Delete" style="rounded=1;whiteSpace=wrap;html=1;arcSize=40;fontColor=#000000;fillColor=#ffffc0;strokeColor=#ff0000;" parent="1" vertex="1">
          <mxGeometry x="900" y="1480" width="120" height="40" as="geometry" />
        </mxCell>
        <mxCell id="rZWRLtwXN4J-4R6t71DZ-105" value="" style="edgeStyle=orthogonalEdgeStyle;html=1;verticalAlign=bottom;endArrow=open;endSize=8;strokeColor=#ff0000;rounded=0;entryX=1;entryY=0.5;entryDx=0;entryDy=0;" parent="1" target="rZWRLtwXN4J-4R6t71DZ-104" edge="1">
          <mxGeometry relative="1" as="geometry">
            <mxPoint x="1229.69" y="1479.9999999999998" as="targetPoint" />
            <mxPoint x="1229.69" y="1420" as="sourcePoint" />
            <Array as="points">
              <mxPoint x="1230" y="1500" />
            </Array>
          </mxGeometry>
        </mxCell>
        <mxCell id="rZWRLtwXN4J-4R6t71DZ-106" value="" style="edgeStyle=orthogonalEdgeStyle;html=1;verticalAlign=bottom;endArrow=open;endSize=8;strokeColor=#ff0000;rounded=0;entryX=0;entryY=0.5;entryDx=0;entryDy=0;" parent="1" target="rZWRLtwXN4J-4R6t71DZ-112" edge="1">
          <mxGeometry relative="1" as="geometry">
            <mxPoint x="1170" y="1560" as="targetPoint" />
            <mxPoint x="954.0900000000001" y="1520" as="sourcePoint" />
            <Array as="points">
              <mxPoint x="960" y="1520" />
              <mxPoint x="960" y="1560" />
            </Array>
          </mxGeometry>
        </mxCell>
        <mxCell id="rZWRLtwXN4J-4R6t71DZ-112" value="Delete Data ?" style="rhombus;whiteSpace=wrap;html=1;fillColor=#ffffc0;strokeColor=#ff0000;" parent="1" vertex="1">
          <mxGeometry x="1180" y="1530" width="100" height="60" as="geometry" />
        </mxCell>
        <mxCell id="rZWRLtwXN4J-4R6t71DZ-113" value="yes" style="edgeStyle=orthogonalEdgeStyle;html=1;align=left;verticalAlign=top;endArrow=open;endSize=8;strokeColor=#ff0000;rounded=0;entryX=0.5;entryY=0;entryDx=0;entryDy=0;" parent="1" edge="1">
          <mxGeometry x="-1" relative="1" as="geometry">
            <mxPoint x="1229.5" y="1650" as="targetPoint" />
            <mxPoint x="1229.5" y="1590" as="sourcePoint" />
          </mxGeometry>
        </mxCell>
        <mxCell id="rZWRLtwXN4J-4R6t71DZ-114" value="no" style="edgeStyle=orthogonalEdgeStyle;html=1;align=left;verticalAlign=bottom;endArrow=open;endSize=8;strokeColor=#ff0000;rounded=0;exitX=1;exitY=0.5;exitDx=0;exitDy=0;entryX=1;entryY=0.5;entryDx=0;entryDy=0;" parent="1" source="rZWRLtwXN4J-4R6t71DZ-112" target="rZWRLtwXN4J-4R6t71DZ-99" edge="1">
          <mxGeometry x="-1" relative="1" as="geometry">
            <mxPoint x="1290" y="1560" as="targetPoint" />
            <Array as="points">
              <mxPoint x="1380" y="1560" />
              <mxPoint x="1380" y="1400" />
            </Array>
            <mxPoint x="1225" y="2030" as="sourcePoint" />
          </mxGeometry>
        </mxCell>
        <mxCell id="rZWRLtwXN4J-4R6t71DZ-115" value="Delete Process" style="rounded=1;whiteSpace=wrap;html=1;arcSize=40;fontColor=#000000;fillColor=#ffffc0;strokeColor=#ff0000;" parent="1" vertex="1">
          <mxGeometry x="1170" y="1650" width="120" height="40" as="geometry" />
        </mxCell>
        <mxCell id="rZWRLtwXN4J-4R6t71DZ-116" value="Delete Saved" style="rounded=1;whiteSpace=wrap;html=1;arcSize=40;fontColor=#000000;fillColor=#ffffc0;strokeColor=#ff0000;" parent="1" vertex="1">
          <mxGeometry x="1170" y="1730" width="120" height="40" as="geometry" />
        </mxCell>
        <mxCell id="rZWRLtwXN4J-4R6t71DZ-117" value="" style="edgeStyle=orthogonalEdgeStyle;html=1;verticalAlign=bottom;endArrow=open;endSize=8;strokeColor=#ff0000;rounded=0;" parent="1" edge="1">
          <mxGeometry relative="1" as="geometry">
            <mxPoint x="1229.4999999999998" y="1729.9999999999995" as="targetPoint" />
            <mxPoint x="1229.4999999999998" y="1690" as="sourcePoint" />
          </mxGeometry>
        </mxCell>
        <mxCell id="rZWRLtwXN4J-4R6t71DZ-118" value="Refresh&amp;nbsp;" style="rounded=1;whiteSpace=wrap;html=1;arcSize=40;fontColor=#000000;fillColor=#ffffc0;strokeColor=#ff0000;" parent="1" vertex="1">
          <mxGeometry x="1170" y="1810" width="120" height="40" as="geometry" />
        </mxCell>
        <mxCell id="rZWRLtwXN4J-4R6t71DZ-119" value="" style="edgeStyle=orthogonalEdgeStyle;html=1;verticalAlign=bottom;endArrow=open;endSize=8;strokeColor=#ff0000;rounded=0;" parent="1" edge="1">
          <mxGeometry relative="1" as="geometry">
            <mxPoint x="1229.4999999999998" y="1809.9999999999995" as="targetPoint" />
            <mxPoint x="1229.4999999999998" y="1770" as="sourcePoint" />
          </mxGeometry>
        </mxCell>
        <mxCell id="rZWRLtwXN4J-4R6t71DZ-120" value="" style="ellipse;html=1;shape=endState;fillColor=#000000;strokeColor=#ff0000;" parent="1" vertex="1">
          <mxGeometry x="1215" y="1890" width="30" height="30" as="geometry" />
        </mxCell>
        <mxCell id="rZWRLtwXN4J-4R6t71DZ-121" value="" style="edgeStyle=orthogonalEdgeStyle;html=1;verticalAlign=bottom;endArrow=open;endSize=8;strokeColor=#ff0000;rounded=0;" parent="1" edge="1">
          <mxGeometry relative="1" as="geometry">
            <mxPoint x="1229.4999999999998" y="1889.9999999999995" as="targetPoint" />
            <mxPoint x="1229.4999999999998" y="1850" as="sourcePoint" />
          </mxGeometry>
        </mxCell>
      </root>
    </mxGraphModel>
  </diagram>
</mxfile>
